<svg width="24" height="24" viewBox="0 0 24 24" fill="none" xmlns="http://www.w3.org/2000/svg">
<g clip-path="url(#clip0_304_8053)">
<path d="M2.89771 4.18142C8.47617 -2.31054 18.8201 -1.02955 22.6856 6.55441C19.9631 6.55591 15.7016 6.55291 13.3931 6.55441C11.7192 6.55441 10.6377 6.51691 9.46767 7.1334C8.09218 7.8579 7.05268 9.20039 6.69118 10.7784L2.89771 4.18142Z" fill="#F44336"/>
<path d="M8.00817 12.0008C8.00817 14.2013 9.79766 15.9908 11.9966 15.9908C14.1956 15.9908 15.9851 14.2013 15.9851 12.0008C15.9851 9.80035 14.1956 8.01087 11.9966 8.01087C9.79616 8.00937 8.00817 9.80035 8.00817 12.0008Z" fill="#2196F3"/>
<path d="M13.5431 17.2238C11.3052 17.8883 8.68467 17.1518 7.25068 14.6739C6.15568 12.7839 3.2607 7.7424 1.94671 5.44891C-2.66126 12.5109 1.30921 22.1333 9.67316 23.7758L13.5431 17.2238Z" fill="#4CAF50"/>
<path d="M15.7001 8.00937C17.5646 9.74336 17.9711 12.5513 16.7081 14.7278C15.7571 16.3688 12.7196 21.4943 11.2482 23.9753C19.8656 24.5063 26.1476 16.0613 23.3096 8.00787L15.7001 8.00937Z" fill="#FFC107"/>
</g>
<defs>
<clipPath id="clip0_304_8053">
<rect width="24" height="24" fill="white"/>
</clipPath>
</defs>
</svg>
