<svg width="24" height="24" viewBox="0 0 24 24" fill="none" xmlns="http://www.w3.org/2000/svg">
<g clip-path="url(#clip0_304_8082)">
<path d="M13.3072 19.3642L9.24411 20.8129L9.09007 21.3513C8.87132 22.1177 8.04025 22.7445 7.24347 22.7445V23.1067H15.67L13.3072 19.3642Z" fill="#ADACA7"/>
<path d="M14.9099 21.3513L14.3421 19.3642L12 17.9155L9.65795 19.3642L9.24411 20.8129H13.3072L13.4613 21.3513C13.68 22.1176 14.5111 22.7444 15.3079 22.7444L16.0322 23.1066L16.7565 22.7444C15.9598 22.7444 15.1287 22.1176 14.9099 21.3513Z" fill="#8F8F8B"/>
<path d="M21.1026 19.3642H22.5513C23.3481 19.3642 24 18.7123 24 17.9155V15.0181L21.1026 12.1207V19.3642Z" fill="#ADACA7"/>
<path d="M0 17.9155C0 18.7123 0.651911 19.3642 1.44869 19.3642H21.1026C21.8994 19.3642 22.5513 18.7123 22.5513 17.9155V9.22333L0 15.0181V17.9155Z" fill="#CBC9C2"/>
<path d="M22.5513 0.531189H21.1026L22.5513 15.0181H24V1.97988C24 1.1831 23.3481 0.531189 22.5513 0.531189Z" fill="#404242"/>
<path d="M22.5513 1.97988C22.5513 1.1831 21.8994 0.531189 21.1026 0.531189H1.44869C0.651911 0.531189 0 1.1831 0 1.97988V15.0181H22.5513V13.5694L12 7.77402L22.5513 1.97988Z" fill="#565959"/>
<path d="M22.5513 1.97965L21.1029 1.97864C21.1029 1.97888 12 7.77403 12 7.77403C12 7.77403 21.1027 13.5693 21.1026 13.5694L22.5513 13.5685C22.5513 13.5685 22.5512 1.97984 22.5513 1.97965Z" fill="#4B88D5"/>
<path d="M21.1026 1.97964L1.45295 1.97858C1.45174 1.97916 1.45073 13.5692 1.4487 13.5694C1.4487 13.5694 21.1017 13.5685 21.1021 13.5685C21.1024 13.5685 21.1006 1.97983 21.1026 1.97964Z" fill="#69A7FF"/>
<path d="M12 17.9155C12.4001 17.9155 12.7244 17.5912 12.7244 17.1911C12.7244 16.7911 12.4001 16.4668 12 16.4668C11.6 16.4668 11.2757 16.7911 11.2757 17.1911C11.2757 17.5912 11.6 17.9155 12 17.9155Z" fill="white"/>
<path d="M19.4849 23.4688H4.5151C4.31508 23.4688 4.15292 23.3067 4.15292 23.1066C4.15292 22.9066 4.31508 22.7444 4.5151 22.7444H19.4849C19.6849 22.7444 19.8471 22.9066 19.8471 23.1066C19.8471 23.3067 19.6849 23.4688 19.4849 23.4688Z" fill="#8F8F8B"/>
</g>
<defs>
<clipPath id="clip0_304_8082">
<rect width="24" height="24" fill="white"/>
</clipPath>
</defs>
</svg>
