<svg width="24" height="24" viewBox="0 0 24 24" fill="none" xmlns="http://www.w3.org/2000/svg">
<g clip-path="url(#clip0_317_4537)">
<path d="M21.5795 4.72557C20.6565 3.5124 19.5247 2.51401 18.2535 1.75365C18.1954 1.71882 18.12 1.73044 18.0677 1.77685C17.998 1.8465 18.0155 1.9568 18.0909 2.00902C20.4475 3.53565 22.2644 5.99677 22.6881 9.28215C23.5588 15.9574 18.8977 21.5298 12.3386 21.5472C5.12935 21.5704 0.741097 15.197 1.89038 9.47368C1.94841 9.18924 1.91939 8.91061 2.01225 8.6378C2.06447 7.6336 2.44758 6.05475 3.27183 4.44108C2.44177 4.8706 1.38535 6.2289 0.862925 7.48266C0.108378 9.29377 -0.15281 11.4589 0.0851747 13.5195C0.102565 13.6762 0.120003 13.8271 0.137393 13.9838C1.10677 19.6607 6.05227 23.9793 12.0019 23.9677C18.6308 23.956 24.029 18.5172 23.9941 11.8825C23.9826 9.20086 23.0829 6.72235 21.5795 4.72557Z" fill="url(#paint0_radial_317_4537)"/>
<path opacity="0.67" d="M21.5795 4.72557C20.6565 3.5124 19.5247 2.51401 18.2535 1.75365C18.1954 1.71882 18.12 1.73044 18.0677 1.77685C17.998 1.8465 18.0155 1.9568 18.0909 2.00902C20.4475 3.53565 22.2644 5.99677 22.6881 9.28215C23.5588 15.9574 18.8977 21.5298 12.3386 21.5472C5.12935 21.5704 0.741097 15.197 1.89038 9.47368C1.94841 9.18924 1.91939 8.91061 2.01225 8.6378C2.06447 7.6336 2.44758 6.05475 3.27183 4.44108C2.44177 4.8706 1.38535 6.2289 0.862925 7.48266C0.108378 9.29377 -0.15281 11.4589 0.0851747 13.5195C0.102565 13.6762 0.120003 13.8271 0.137393 13.9838C1.10677 19.6607 6.05227 23.9793 12.0019 23.9677C18.6308 23.956 24.029 18.5172 23.9941 11.8825C23.9826 9.20086 23.0829 6.72235 21.5795 4.72557Z" fill="url(#paint1_radial_317_4537)"/>
<path d="M21.5795 4.72557C20.6565 3.5124 19.5247 2.51401 18.2535 1.75365C18.1954 1.71882 18.12 1.73044 18.0677 1.77685C17.998 1.8465 18.0155 1.9568 18.0909 2.00902C20.4475 3.53565 22.2644 5.99677 22.6881 9.28215C23.5588 15.9574 18.8977 21.5298 12.3386 21.5472C5.12935 21.5704 0.741097 15.197 1.89038 9.47368C1.94841 9.18924 1.91939 8.91061 2.01225 8.6378C2.06447 7.6336 2.44758 6.05475 3.27183 4.44108C2.44177 4.8706 1.38535 6.2289 0.862925 7.48266C0.108378 9.29377 -0.15281 11.4589 0.0851747 13.5195C0.102565 13.6762 0.120003 13.8271 0.137393 13.9838C1.10677 19.6607 6.05227 23.9793 12.0019 23.9677C18.6308 23.956 24.029 18.5172 23.9941 11.8825C23.9826 9.20086 23.0829 6.72235 21.5795 4.72557Z" fill="url(#paint2_radial_317_4537)"/>
<path d="M21.5795 4.72557C20.6565 3.5124 19.5247 2.51401 18.2535 1.75365C18.1954 1.71882 18.12 1.73044 18.0677 1.77685C17.998 1.8465 18.0155 1.9568 18.0909 2.00902C20.4475 3.53565 22.2644 5.99677 22.6881 9.28215C23.5588 15.9574 18.8977 21.5298 12.3386 21.5472C5.12935 21.5704 0.741097 15.197 1.89038 9.47368C1.94841 9.18924 1.91939 8.91061 2.01225 8.6378C2.06447 7.6336 2.44758 6.05475 3.27183 4.44108C2.44177 4.8706 1.38535 6.2289 0.862925 7.48266C0.108378 9.29377 -0.15281 11.4589 0.0851747 13.5195C0.102565 13.6762 0.120003 13.8271 0.137393 13.9838C1.10677 19.6607 6.05227 23.9793 12.0019 23.9677C18.6308 23.956 24.029 18.5172 23.9941 11.8825C23.9826 9.20086 23.0829 6.72235 21.5795 4.72557Z" fill="url(#paint3_radial_317_4537)"/>
<path d="M21.5795 4.72557C20.6565 3.5124 19.5247 2.51401 18.2535 1.75365C18.1954 1.71882 18.12 1.73044 18.0677 1.77685C17.998 1.8465 18.0155 1.9568 18.0909 2.00902C20.4475 3.53565 22.2644 5.99677 22.6881 9.28215C23.5588 15.9574 18.8977 21.5298 12.3386 21.5472C5.12935 21.5704 0.741097 15.197 1.89038 9.47368C1.94841 9.18924 1.91939 8.91061 2.01225 8.6378C2.06447 7.6336 2.44758 6.05475 3.27183 4.44108C2.44177 4.8706 1.38535 6.2289 0.862925 7.48266C0.108378 9.29377 -0.15281 11.4589 0.0851747 13.5195C0.102565 13.6762 0.120003 13.8271 0.137393 13.9838C1.10677 19.6607 6.05227 23.9793 12.0019 23.9677C18.6308 23.956 24.029 18.5172 23.9941 11.8825C23.9826 9.20086 23.0829 6.72235 21.5795 4.72557Z" fill="url(#paint4_radial_317_4537)"/>
<path d="M22.9842 8.9513C22.5953 5.45695 20.6333 3.07125 18.1258 1.67817C17.7078 1.446 17.1797 1.54467 16.8778 1.91616L16.872 1.92197C19.7278 3.68076 21.5272 6.79781 21.6201 10.0484C21.7304 14.0013 18.4856 17.1532 14.7475 17.3331C12.031 17.4666 9.47116 16.1548 8.21735 13.5253C7.93872 12.939 7.73557 12.347 7.63108 11.6272C7.039 7.63364 9.72653 4.22634 12.1935 3.37889C10.8642 2.21798 7.5266 2.29922 5.04804 4.12186C3.26022 5.4337 2.09932 7.43044 1.71621 9.81033C1.42596 11.6272 1.69882 13.5136 2.41858 15.197C3.14997 16.9151 4.33989 18.4301 5.84327 19.5446C7.46857 20.7577 9.43047 21.4601 11.4505 21.611C11.7465 21.6342 12.0484 21.6458 12.3444 21.6458C20.2792 21.6575 23.7272 15.644 22.9842 8.9513Z" fill="url(#paint5_radial_317_4537)"/>
<path d="M22.9842 8.9513C22.5953 5.45695 20.6333 3.07125 18.1258 1.67817C17.7078 1.446 17.1797 1.54467 16.8778 1.91616L16.872 1.92197C19.7278 3.68076 21.5272 6.79781 21.6201 10.0484C21.7304 14.0013 18.4856 17.1532 14.7475 17.3331C12.031 17.4666 9.47116 16.1548 8.21735 13.5253C7.93872 12.939 7.73557 12.347 7.63108 11.6272C7.039 7.63364 9.72653 4.22634 12.1935 3.37889C10.8642 2.21798 7.5266 2.29922 5.04804 4.12186C3.26022 5.4337 2.09932 7.43044 1.71621 9.81033C1.42596 11.6272 1.69882 13.5136 2.41858 15.197C3.14997 16.9151 4.33989 18.4301 5.84327 19.5446C7.46857 20.7577 9.43047 21.4601 11.4505 21.611C11.7465 21.6342 12.0484 21.6458 12.3444 21.6458C20.2792 21.6575 23.7272 15.644 22.9842 8.9513Z" fill="url(#paint6_radial_317_4537)"/>
<path opacity="0.53" d="M22.9842 8.9513C22.5953 5.45695 20.6333 3.07125 18.1258 1.67817C17.7078 1.446 17.1797 1.54467 16.8778 1.91616L16.872 1.92197C19.7278 3.68076 21.5272 6.79781 21.6201 10.0484C21.7304 14.0013 18.4856 17.1532 14.7475 17.3331C12.031 17.4666 9.47116 16.1548 8.21735 13.5253C7.93872 12.939 7.73557 12.347 7.63108 11.6272C7.039 7.63364 9.72653 4.22634 12.1935 3.37889C10.8642 2.21798 7.5266 2.29922 5.04804 4.12186C3.26022 5.4337 2.09932 7.43044 1.71621 9.81033C1.42596 11.6272 1.69882 13.5136 2.41858 15.197C3.14997 16.9151 4.33989 18.4301 5.84327 19.5446C7.46857 20.7577 9.43047 21.4601 11.4505 21.611C11.7465 21.6342 12.0484 21.6458 12.3444 21.6458C20.2792 21.6575 23.7272 15.644 22.9842 8.9513Z" fill="url(#paint7_radial_317_4537)"/>
<path opacity="0.53" d="M22.9842 8.9513C22.5953 5.45695 20.6333 3.07125 18.1258 1.67817C17.7078 1.446 17.1797 1.54467 16.8778 1.91616L16.872 1.92197C19.7278 3.68076 21.5272 6.79781 21.6201 10.0484C21.7304 14.0013 18.4856 17.1532 14.7475 17.3331C12.031 17.4666 9.47116 16.1548 8.21735 13.5253C7.93872 12.939 7.73557 12.347 7.63108 11.6272C7.039 7.63364 9.72653 4.22634 12.1935 3.37889C10.8642 2.21798 7.5266 2.29922 5.04804 4.12186C3.26022 5.4337 2.09932 7.43044 1.71621 9.81033C1.42596 11.6272 1.69882 13.5136 2.41858 15.197C3.14997 16.9151 4.33989 18.4301 5.84327 19.5446C7.46857 20.7577 9.43047 21.4601 11.4505 21.611C11.7465 21.6342 12.0484 21.6458 12.3444 21.6458C20.2792 21.6575 23.7272 15.644 22.9842 8.9513Z" fill="url(#paint8_radial_317_4537)"/>
<path d="M16.8894 1.90454C16.8836 1.91035 16.8836 1.91617 16.8778 1.92193C16.5353 2.34568 16.605 2.96096 17.0229 3.30925C18.8224 4.7836 20.0297 6.87906 20.0297 9.29954C20.0297 12.643 17.4408 15.1912 14.4109 15.0112C9.90649 14.7384 8.7746 10.1354 11.1139 8.1444C10.4811 8.0109 9.29703 8.27209 8.46696 9.50846C7.724 10.6172 7.76459 12.3237 8.22317 13.5369C9.47693 16.1605 12.0368 17.5072 14.7533 17.3447C19.8845 17.0312 22.0787 12.7997 22.218 9.78709C22.3689 6.5191 21.6317 3.62265 18.1374 1.67232C17.7137 1.43439 17.1912 1.53306 16.8894 1.90454Z" fill="url(#paint9_radial_317_4537)"/>
<path d="M21.5795 4.72549C21.2603 4.30174 20.9062 3.90705 20.5347 3.53557C20.2387 3.22211 19.9194 2.93191 19.5828 2.6591C19.7743 2.82743 19.9601 3.00738 20.14 3.1931C20.7901 3.89547 21.3068 4.72549 21.6028 5.63102C22.2297 7.52332 22.189 9.89739 20.9933 11.7549C19.5654 13.9722 17.2435 15.0693 14.736 15.017C14.6257 15.017 14.5212 15.017 14.4109 15.0112C9.90652 14.7384 8.77463 10.1354 11.1139 8.14441C10.4812 8.01091 9.29705 8.2721 8.46699 9.50847C7.72402 10.6172 7.76461 12.3237 8.22319 13.5369C7.94457 12.9506 7.74141 12.3585 7.63692 11.6388C7.04485 7.64519 9.73238 4.23794 12.1993 3.39044C10.8701 2.22953 7.53244 2.31077 5.05388 4.13341C3.60858 5.19564 2.57536 6.70483 2.02974 8.50427C2.11102 7.49425 2.49408 5.99088 3.27774 4.44686C2.44767 4.87638 1.39125 6.23468 0.86883 7.48844C0.114237 9.2995 -0.146951 11.4646 0.0910334 13.5252C0.108424 13.6819 0.125862 13.8328 0.143252 13.9895C1.10681 19.6548 6.0465 23.9734 11.9846 23.9734C18.6192 23.9734 24 18.5926 24 11.958C23.9942 9.24143 23.0945 6.73966 21.5795 4.72549Z" fill="url(#paint10_linear_317_4537)"/>
<path d="M21.6027 5.63101C21.3009 4.72548 20.7901 3.89547 20.14 3.19309C18.7469 1.69553 16.6978 0.737778 14.7243 0.302403C13.0642 -0.063269 11.3228 -0.0575034 9.75561 0.273387C8.04908 0.633294 6.55147 1.37045 5.60535 2.28756C8.87914 0.372059 13.2906 0.726153 16.309 2.87382C16.814 3.23373 17.2842 3.64586 17.7079 4.09857C19.7162 6.26368 20.5347 9.8799 18.8456 12.4804C17.9981 13.798 16.1755 15.0286 14.4747 15.017C17.081 15.1563 19.5131 14.0534 20.9874 11.7606C22.189 9.89739 22.2296 7.52331 21.6027 5.63101Z" fill="url(#paint11_linear_317_4537)"/>
<path d="M21.6027 5.63101C21.3009 4.72548 20.7901 3.89547 20.14 3.19309C18.7469 1.69553 16.6978 0.737778 14.7243 0.302403C13.0642 -0.063269 11.3228 -0.0575034 9.75561 0.273387C8.04908 0.633294 6.55147 1.37045 5.60535 2.28756C8.87914 0.372059 13.2906 0.726153 16.309 2.87382C16.814 3.23373 17.2842 3.64586 17.7079 4.09857C19.7162 6.26368 20.5347 9.8799 18.8456 12.4804C17.9981 13.798 16.1755 15.0286 14.4747 15.017C17.081 15.1563 19.5131 14.0534 20.9874 11.7606C22.189 9.89739 22.2296 7.52331 21.6027 5.63101Z" fill="url(#paint12_linear_317_4537)"/>
</g>
<defs>
<radialGradient id="paint0_radial_317_4537" cx="0" cy="0" r="1" gradientUnits="userSpaceOnUse" gradientTransform="translate(21.4552 4.65057) scale(27.1122)">
<stop stop-color="#FFF339"/>
<stop offset="0.2949" stop-color="#FF9800"/>
<stop offset="0.4315" stop-color="#FF5D30"/>
<stop offset="0.5302" stop-color="#FF3450"/>
<stop offset="0.7493" stop-color="#FF0D6F"/>
<stop offset="0.7648" stop-color="#FF0B71"/>
<stop offset="0.8801" stop-color="#FD007D"/>
<stop offset="0.9528" stop-color="#F40082"/>
</radialGradient>
<radialGradient id="paint1_radial_317_4537" cx="0" cy="0" r="1" gradientUnits="userSpaceOnUse" gradientTransform="translate(1.98532 6.99111) scale(15.659 15.659)">
<stop stop-color="#D30082"/>
<stop offset="1" stop-color="#FF0D6F" stop-opacity="0"/>
</radialGradient>
<radialGradient id="paint2_radial_317_4537" cx="0" cy="0" r="1" gradientUnits="userSpaceOnUse" gradientTransform="translate(23.7832 4.5055) scale(29.7018 29.7018)">
<stop stop-color="#FFDD00" stop-opacity="0.6"/>
<stop offset="0.0837" stop-color="#FFD800" stop-opacity="0.5244"/>
<stop offset="0.1822" stop-color="#FFCA00" stop-opacity="0.4353"/>
<stop offset="0.2884" stop-color="#FFB200" stop-opacity="0.3394"/>
<stop offset="0.3998" stop-color="#FF9100" stop-opacity="0.2388"/>
<stop offset="0.5154" stop-color="#FF6612" stop-opacity="0.1343"/>
<stop offset="0.6329" stop-color="#FF302B" stop-opacity="0.0282"/>
<stop offset="0.664" stop-color="#FF1F30" stop-opacity="0"/>
</radialGradient>
<radialGradient id="paint3_radial_317_4537" cx="0" cy="0" r="1" gradientUnits="userSpaceOnUse" gradientTransform="translate(12.6816 14.1047) scale(39.9059 39.9059)">
<stop offset="0.1528" stop-color="#AF0611"/>
<stop offset="0.2061" stop-color="#ED1E32" stop-opacity="0.5541"/>
<stop offset="0.2495" stop-color="#FF2D47" stop-opacity="0.1914"/>
<stop offset="0.2724" stop-color="#FF3450" stop-opacity="0"/>
</radialGradient>
<radialGradient id="paint4_radial_317_4537" cx="0" cy="0" r="1" gradientUnits="userSpaceOnUse" gradientTransform="translate(9.55969 13.6228) scale(40.1837 40.1837)">
<stop offset="0.1129" stop-color="#AF0611"/>
<stop offset="0.1893" stop-color="#ED1E32" stop-opacity="0.5541"/>
<stop offset="0.2515" stop-color="#FF2D47" stop-opacity="0.1914"/>
<stop offset="0.2843" stop-color="#FF3450" stop-opacity="0"/>
</radialGradient>
<radialGradient id="paint5_radial_317_4537" cx="0" cy="0" r="1" gradientUnits="userSpaceOnUse" gradientTransform="translate(20.8818 3.86531) scale(25.2514)">
<stop stop-color="#FF9800"/>
<stop offset="0.295" stop-color="#FF7232"/>
<stop offset="0.4846" stop-color="#FF5B50"/>
<stop offset="0.626" stop-color="#FF4E5E"/>
<stop offset="0.7365" stop-color="#FF3E55"/>
<stop offset="0.8428" stop-color="#FF3450"/>
</radialGradient>
<radialGradient id="paint6_radial_317_4537" cx="0" cy="0" r="1" gradientUnits="userSpaceOnUse" gradientTransform="translate(20.8818 4.79342) scale(23.9545 23.9545)">
<stop offset="0.0841" stop-color="#FFDE00"/>
<stop offset="0.2081" stop-color="#FFD600" stop-opacity="0.832"/>
<stop offset="0.4033" stop-color="#FFBF00" stop-opacity="0.5677"/>
<stop offset="0.6437" stop-color="#FF9B00" stop-opacity="0.242"/>
<stop offset="0.8224" stop-color="#FF7C00" stop-opacity="0"/>
</radialGradient>
<radialGradient id="paint7_radial_317_4537" cx="0" cy="0" r="1" gradientUnits="userSpaceOnUse" gradientTransform="translate(14.9757 12.2374) rotate(75.6841) scale(12.0573 12.5828)">
<stop offset="0.3634" stop-color="#FF3450"/>
<stop offset="0.4111" stop-color="#FF424A" stop-opacity="0.7895"/>
<stop offset="0.5902" stop-color="#FF7232" stop-opacity="0"/>
</radialGradient>
<radialGradient id="paint8_radial_317_4537" cx="0" cy="0" r="1" gradientUnits="userSpaceOnUse" gradientTransform="translate(12.8148 13.2316) rotate(75.6841) scale(12.1951 12.2056)">
<stop offset="0.2159" stop-color="#FF3450" stop-opacity="0.8"/>
<stop offset="0.2702" stop-color="#FF424A" stop-opacity="0.6316"/>
<stop offset="0.4739" stop-color="#FF7232" stop-opacity="0"/>
</radialGradient>
<radialGradient id="paint9_radial_317_4537" cx="0" cy="0" r="1" gradientUnits="userSpaceOnUse" gradientTransform="translate(25.9915 0.951138) scale(42.7212 42.7212)">
<stop offset="0.0536" stop-color="#FFF339"/>
<stop offset="0.4573" stop-color="#FF9800"/>
<stop offset="0.5211" stop-color="#FF840D"/>
<stop offset="0.5871" stop-color="#FF772B"/>
<stop offset="0.6393" stop-color="#FF7232"/>
</radialGradient>
<linearGradient id="paint10_linear_317_4537" x1="17.7082" y1="2.14299" x2="5.46009" y2="23.3573" gradientUnits="userSpaceOnUse">
<stop stop-color="#FFF339" stop-opacity="0.8"/>
<stop offset="0.75" stop-color="#FFF339" stop-opacity="0"/>
</linearGradient>
<linearGradient id="paint11_linear_317_4537" x1="13.8042" y1="15.0873" x2="13.8042" y2="0.179365" gradientUnits="userSpaceOnUse">
<stop stop-color="#008EE9"/>
<stop offset="0.1016" stop-color="#1982EE"/>
<stop offset="0.3885" stop-color="#8565FD"/>
<stop offset="0.5309" stop-color="#A059FF"/>
<stop offset="0.6915" stop-color="#B24FFB"/>
<stop offset="0.9888" stop-color="#DD37EB"/>
<stop offset="1" stop-color="#DF36EA"/>
</linearGradient>
<linearGradient id="paint12_linear_317_4537" x1="11.1824" y1="-0.363541" x2="19.3157" y2="13.7236" gradientUnits="userSpaceOnUse">
<stop offset="0.8054" stop-color="#A059FF" stop-opacity="0"/>
<stop offset="1" stop-color="#80008E" stop-opacity="0.5"/>
</linearGradient>
<clipPath id="clip0_317_4537">
<rect width="24" height="24" fill="white"/>
</clipPath>
</defs>
</svg>
