<svg width="24" height="24" viewBox="0 0 24 24" fill="none" xmlns="http://www.w3.org/2000/svg">
<path d="M18.5504 12.7512C18.5191 9.70987 21.03 8.25443 21.1413 8.1814C19.7311 6.12082 17.5366 5.83739 16.7524 5.80609C14.8866 5.61481 13.1077 6.90506 12.1583 6.90506C11.2123 6.90506 9.74819 5.83217 8.19885 5.85999C6.16088 5.89129 4.28463 7.04591 3.23435 8.86825C1.11813 12.5408 2.69182 17.98 4.75413 20.9622C5.76268 22.4193 6.96598 24.0556 8.54314 23.9982C10.0629 23.9374 10.6368 23.014 12.4747 23.014C14.3127 23.014 14.8292 23.9982 16.4359 23.9687C18.0722 23.9374 19.1068 22.4819 20.1067 21.0213C21.2648 19.3293 21.7412 17.6896 21.7708 17.6079C21.7325 17.587 18.5834 16.3819 18.5504 12.7512Z" fill="#030104"/>
<path d="M15.5283 3.83249C16.3647 2.81872 16.9315 1.40675 16.7768 0C15.5683 0.0486886 14.1093 0.801623 13.2416 1.81713C12.4644 2.71613 11.7879 4.1507 11.9688 5.52963C13.3147 5.63571 14.6919 4.84452 15.5283 3.83249Z" fill="#030104"/>
</svg>
