<svg width="24" height="24" viewBox="0 0 24 24" fill="none" xmlns="http://www.w3.org/2000/svg">
<g clip-path="url(#clip0_317_4564)">
<path d="M8.05011 18.7627C6.72346 17.1965 5.864 14.881 5.80565 12.2828C5.80546 12.2761 5.80546 11.7241 5.80565 11.7174C5.864 9.11919 6.72341 6.80375 8.05002 5.23766C9.77164 3.0021 12.3551 2.12334 15.2128 2.12334C16.9708 2.12334 19.9979 3.0547 19.9979 3.0547C17.8854 1.16475 15.1001 0.0118594 12.0453 0.000562499C12.0302 0.000515624 12.0151 0 12 0C5.37257 0 0 5.37257 0 12C0 18.4357 5.06647 23.6877 11.4285 23.9861C11.6179 23.995 11.8084 24 12 24C15.0723 24 17.8742 22.845 19.997 20.9461C19.997 20.9461 17.0853 21.6089 15.3276 21.6089C12.4699 21.6089 9.77164 20.9981 8.05011 18.7627Z" fill="url(#paint0_linear_317_4564)"/>
<path d="M8.05005 5.2377C9.1511 3.93791 10.5736 3.15397 12.1273 3.15397C15.6206 3.15397 18.4525 7.11458 18.4525 12.0002C18.4525 16.8858 15.6206 20.8463 12.1273 20.8463C10.5737 20.8463 9.15114 20.0624 8.05014 18.7627C9.77167 20.9982 12.3307 22.4157 15.1884 22.4157C16.9461 22.4157 18.5906 21.879 19.9971 20.9461C22.4535 18.7488 24 15.5552 24 12C24 8.44522 22.4539 5.252 19.9979 3.05469C18.5913 2.12141 16.9464 1.58459 15.1884 1.58459C12.3307 1.58464 9.77163 3.00219 8.05005 5.2377Z" fill="url(#paint1_linear_317_4564)"/>
</g>
<defs>
<linearGradient id="paint0_linear_317_4564" x1="9.99892" y1="0.391298" x2="9.99892" y2="23.6507" gradientUnits="userSpaceOnUse">
<stop offset="0.3" stop-color="#FF1B2D"/>
<stop offset="0.4381" stop-color="#FA1A2C"/>
<stop offset="0.5939" stop-color="#ED1528"/>
<stop offset="0.7581" stop-color="#D60E21"/>
<stop offset="0.9272" stop-color="#B70519"/>
<stop offset="1" stop-color="#A70014"/>
</linearGradient>
<linearGradient id="paint1_linear_317_4564" x1="16.025" y1="1.76226" x2="16.025" y2="22.3341" gradientUnits="userSpaceOnUse">
<stop stop-color="#9C0000"/>
<stop offset="0.7" stop-color="#FF4B4B"/>
</linearGradient>
<clipPath id="clip0_317_4564">
<rect width="24" height="24" fill="white"/>
</clipPath>
</defs>
</svg>
