<svg width="24" height="24" viewBox="0 0 24 24" fill="none" xmlns="http://www.w3.org/2000/svg">
<g clip-path="url(#clip0_317_4569)">
<path d="M12 24C18.6274 24 24 18.6274 24 12C24 5.37258 18.6274 0 12 0C5.37258 0 0 5.37258 0 12C0 18.6274 5.37258 24 12 24Z" fill="#1DA2F8"/>
<path d="M12 1.77606C11.9192 1.77606 11.8536 1.71053 11.8536 1.62972V0.960064C11.8536 0.879252 11.9192 0.813721 12 0.813721C12.0808 0.813721 12.1463 0.879252 12.1463 0.960064V1.62972C12.1463 1.71053 12.0808 1.77606 12 1.77606Z" fill="#F2F2F2"/>
<path d="M12 23.1862C11.9192 23.1862 11.8536 23.1207 11.8536 23.0399V22.3702C11.8536 22.2894 11.9192 22.2239 12 22.2239C12.0808 22.2239 12.1463 22.2894 12.1463 22.3702V23.0399C12.1463 23.1207 12.0808 23.1862 12 23.1862Z" fill="#F2F2F2"/>
<path d="M10.1991 1.93362C10.1293 1.93362 10.0676 1.88365 10.0551 1.81264L9.93877 1.15315C9.92475 1.07356 9.97791 0.99762 10.0575 0.983651C10.1373 0.969776 10.213 1.02279 10.227 1.10239L10.3433 1.76187C10.3573 1.84146 10.3042 1.9174 10.2246 1.93137C10.216 1.93282 10.2075 1.93362 10.1991 1.93362Z" fill="#F2F2F2"/>
<path d="M13.9168 23.0185C13.8471 23.0185 13.7854 22.9685 13.7728 22.8975L13.6565 22.238C13.6425 22.1584 13.6957 22.0825 13.7752 22.0685C13.8551 22.0545 13.9308 22.1076 13.9448 22.1873L14.0611 22.8467C14.0751 22.9263 14.0219 23.0022 13.9424 23.0162C13.9338 23.0178 13.9253 23.0185 13.9168 23.0185Z" fill="#F2F2F2"/>
<path d="M8.45315 2.40148C8.39338 2.40148 8.33727 2.36454 8.31566 2.30515L8.08658 1.6759C8.05902 1.59992 8.09816 1.51597 8.1741 1.48831C8.2498 1.46079 8.33404 1.49979 8.3616 1.57578L8.59063 2.20503C8.61829 2.28101 8.5791 2.36497 8.50316 2.39262C8.48666 2.39862 8.46979 2.40148 8.45315 2.40148Z" fill="#F2F2F2"/>
<path d="M15.7759 22.5204C15.7161 22.5204 15.66 22.4835 15.6384 22.4241L15.4094 21.7948C15.3817 21.7189 15.4209 21.6349 15.4969 21.6072C15.5726 21.5796 15.6568 21.6187 15.6844 21.6947L15.9134 22.324C15.941 22.3999 15.9018 22.4839 15.8259 22.5116C15.8094 22.5176 15.7925 22.5204 15.7759 22.5204Z" fill="#F2F2F2"/>
<path d="M6.81495 3.16547C6.76437 3.16547 6.7152 3.13922 6.68806 3.09226L6.35323 2.51232C6.31287 2.44233 6.33678 2.35285 6.40681 2.31244C6.4767 2.27185 6.56628 2.29599 6.60673 2.36597L6.94156 2.94591C6.98192 3.0159 6.95801 3.10538 6.88798 3.14579C6.86501 3.15915 6.83979 3.16547 6.81495 3.16547Z" fill="#F2F2F2"/>
<path d="M17.52 21.7072C17.4694 21.7072 17.4203 21.681 17.3931 21.634L17.0583 21.0541C17.0179 20.9841 17.0419 20.8946 17.1119 20.8542C17.1818 20.8136 17.2713 20.8377 17.3118 20.9077L17.6466 21.4877C17.687 21.5576 17.6631 21.6471 17.5931 21.6875C17.5701 21.7009 17.5449 21.7072 17.52 21.7072Z" fill="#F2F2F2"/>
<path d="M5.3342 4.20224C5.29248 4.20224 5.25095 4.18448 5.22203 4.14998L4.79157 3.63702C4.73959 3.5751 4.7477 3.48281 4.80967 3.43082C4.8715 3.37893 4.96384 3.38695 5.01582 3.44887L5.44628 3.96182C5.49826 4.02374 5.49015 4.11604 5.42818 4.16802C5.40081 4.19104 5.36743 4.20224 5.3342 4.20224Z" fill="#F2F2F2"/>
<path d="M19.0964 20.6033C19.0546 20.6033 19.0131 20.5856 18.9842 20.5511L18.5538 20.0381C18.5018 19.9762 18.5099 19.8839 18.5719 19.8319C18.6337 19.7801 18.726 19.788 18.778 19.85L19.2084 20.3629C19.2604 20.4248 19.2523 20.5171 19.1903 20.5691C19.163 20.5921 19.1295 20.6033 19.0964 20.6033Z" fill="#F2F2F2"/>
<path d="M4.05582 5.48048C4.02263 5.48048 3.98921 5.46927 3.96188 5.44626L3.44893 5.0158C3.38696 4.96382 3.3789 4.87157 3.43084 4.8096C3.48282 4.74763 3.57516 4.73966 3.63699 4.79155L4.14995 5.22201C4.21191 5.27399 4.21998 5.36624 4.16804 5.42821C4.13907 5.46266 4.09754 5.48048 4.05582 5.48048Z" fill="#F2F2F2"/>
<path d="M20.4569 19.2427C20.4237 19.2427 20.3903 19.2315 20.3629 19.2085L19.85 18.778C19.7881 18.726 19.78 18.6338 19.8319 18.5718C19.8839 18.5098 19.9762 18.5019 20.0381 18.5538L20.551 18.9842C20.6129 19.0362 20.621 19.1284 20.5691 19.1904C20.5401 19.2249 20.4986 19.2427 20.4569 19.2427Z" fill="#F2F2F2"/>
<path d="M3.01888 6.96118C2.99409 6.96118 2.96891 6.95485 2.94585 6.94154L2.36591 6.60671C2.29588 6.56631 2.27198 6.47682 2.31234 6.40684C2.35279 6.3369 2.44204 6.31276 2.51226 6.35331L3.0922 6.68813C3.16223 6.72854 3.18613 6.81802 3.14577 6.88801C3.11868 6.93493 3.06951 6.96118 3.01888 6.96118Z" fill="#F2F2F2"/>
<path d="M21.5606 17.6663C21.5358 17.6663 21.5106 17.66 21.4876 17.6467L20.9077 17.3118C20.8376 17.2714 20.8137 17.182 20.8541 17.112C20.8944 17.042 20.984 17.0178 21.054 17.0584L21.6339 17.3933C21.7039 17.4337 21.7278 17.5232 21.6875 17.5931C21.6603 17.6401 21.6112 17.6663 21.5606 17.6663Z" fill="#F2F2F2"/>
<path d="M2.25515 8.59953C2.23851 8.59953 2.22163 8.59667 2.20513 8.59067L1.57584 8.36164C1.49985 8.33398 1.46071 8.25003 1.48837 8.17405C1.51593 8.09806 1.60012 8.05906 1.67587 8.08658L2.30516 8.31561C2.38115 8.34326 2.42029 8.42722 2.39263 8.5032C2.37102 8.56259 2.31491 8.59953 2.25515 8.59953Z" fill="#F2F2F2"/>
<path d="M22.3741 15.9221C22.3575 15.9221 22.3406 15.9193 22.324 15.9133L21.6948 15.6843C21.6189 15.6566 21.5797 15.5726 21.6074 15.4967C21.6349 15.4207 21.7189 15.3817 21.795 15.4092L22.4242 15.6382C22.5001 15.6659 22.5393 15.7498 22.5116 15.8258C22.49 15.8853 22.4338 15.9221 22.3741 15.9221Z" fill="#F2F2F2"/>
<path d="M1.78741 10.3455C1.77897 10.3455 1.77044 10.3448 1.76186 10.3433L1.10238 10.227C1.02278 10.2129 0.969673 10.137 0.983689 10.0575C0.997704 9.97793 1.07327 9.92482 1.15324 9.93874L1.81272 10.055C1.89231 10.0691 1.94542 10.145 1.93141 10.2245C1.91889 10.2956 1.85716 10.3455 1.78741 10.3455Z" fill="#F2F2F2"/>
<path d="M22.8722 14.0634C22.8638 14.0634 22.8552 14.0627 22.8467 14.0612L22.1872 13.9449C22.1076 13.9308 22.0545 13.8549 22.0685 13.7754C22.0825 13.6958 22.158 13.6427 22.2381 13.6566L22.8976 13.7729C22.9772 13.787 23.0303 13.8629 23.0162 13.9424C23.0037 14.0134 22.9419 14.0634 22.8722 14.0634Z" fill="#F2F2F2"/>
<path d="M1.62967 12.1463H0.960064C0.879252 12.1463 0.813721 12.0808 0.813721 12C0.813721 11.9192 0.879252 11.8536 0.960064 11.8536H1.62967C1.71049 11.8536 1.77602 11.9192 1.77602 12C1.77602 12.0808 1.71049 12.1463 1.62967 12.1463Z" fill="#F2F2F2"/>
<path d="M23.0399 12.1463H22.3702C22.2894 12.1463 22.2239 12.0808 22.2239 12C22.2239 11.9192 22.2894 11.8536 22.3702 11.8536H23.0399C23.1207 11.8536 23.1863 11.9192 23.1863 12C23.1863 12.0808 23.1207 12.1463 23.0399 12.1463Z" fill="#F2F2F2"/>
<path d="M1.12769 14.0634C1.05794 14.0634 0.996204 14.0134 0.983689 13.9424C0.969673 13.8629 1.02278 13.7869 1.10238 13.7729L1.76186 13.6566C1.84174 13.6427 1.91744 13.6957 1.93141 13.7754C1.94542 13.8549 1.89231 13.9309 1.81272 13.9449L1.15324 14.0612C1.14461 14.0627 1.13608 14.0634 1.12769 14.0634Z" fill="#F2F2F2"/>
<path d="M22.2125 10.3455C22.1428 10.3455 22.081 10.2956 22.0685 10.2245C22.0545 10.145 22.1076 10.069 22.1872 10.055L22.8467 9.93874C22.9264 9.92482 23.0023 9.97784 23.0162 10.0575C23.0303 10.137 22.9772 10.213 22.8976 10.227L22.2381 10.3433C22.2295 10.3448 22.221 10.3455 22.2125 10.3455Z" fill="#F2F2F2"/>
<path d="M1.62572 15.9222C1.56596 15.9222 1.50985 15.8852 1.48824 15.8258C1.46058 15.7498 1.49977 15.6659 1.57571 15.6382L2.205 15.4092C2.28071 15.3817 2.36494 15.4207 2.3925 15.4967C2.42016 15.5727 2.38097 15.6566 2.30504 15.6843L1.67574 15.9133C1.65929 15.9193 1.64241 15.9222 1.62572 15.9222Z" fill="#F2F2F2"/>
<path d="M21.7449 8.59952C21.6851 8.59952 21.629 8.56259 21.6074 8.5032C21.5797 8.42721 21.6189 8.34326 21.6948 8.3156L22.324 8.08657C22.4001 8.05906 22.484 8.0981 22.5116 8.17404C22.5393 8.25002 22.5001 8.33398 22.4242 8.36163L21.795 8.59067C21.7783 8.59667 21.7615 8.59952 21.7449 8.59952Z" fill="#F2F2F2"/>
<path d="M2.43923 17.6662C2.38865 17.6662 2.33948 17.64 2.31234 17.593C2.27198 17.523 2.29588 17.4335 2.36591 17.3931L2.94585 17.0583C3.01593 17.0177 3.10527 17.0418 3.14577 17.1118C3.18613 17.1818 3.16223 17.2713 3.0922 17.3117L2.51226 17.6465C2.4892 17.6599 2.46407 17.6662 2.43923 17.6662Z" fill="#F2F2F2"/>
<path d="M20.9811 6.96123C20.9305 6.96123 20.8813 6.93498 20.8542 6.88801C20.8138 6.81802 20.8378 6.72854 20.9078 6.68813L21.4877 6.35331C21.5576 6.31276 21.6471 6.3369 21.6876 6.40684C21.728 6.47682 21.7041 6.5663 21.634 6.60671L21.0541 6.94154C21.0311 6.9549 21.0058 6.96123 20.9811 6.96123Z" fill="#F2F2F2"/>
<path d="M3.54303 19.2427C3.50131 19.2427 3.45978 19.2249 3.43086 19.1904C3.37887 19.1285 3.38698 19.0362 3.44895 18.9842L3.9619 18.5537C4.02373 18.5019 4.11607 18.5099 4.16806 18.5718C4.22004 18.6337 4.21193 18.726 4.14996 18.778L3.63701 19.2084C3.60964 19.2315 3.57626 19.2427 3.54303 19.2427Z" fill="#F2F2F2"/>
<path d="M19.9442 5.48046C19.9024 5.48046 19.8609 5.4627 19.832 5.4282C19.78 5.36627 19.7881 5.27402 19.85 5.22199L20.3629 4.79154C20.4249 4.73965 20.5172 4.74766 20.5691 4.80959C20.6211 4.87151 20.613 4.96376 20.5511 5.01579L20.0382 5.44624C20.0107 5.46921 19.9774 5.48046 19.9442 5.48046Z" fill="#F2F2F2"/>
<path d="M4.90359 20.6034C4.8704 20.6034 4.83698 20.5922 4.80965 20.5691C4.74768 20.5172 4.73962 20.4249 4.79155 20.3629L5.22201 19.85C5.27404 19.7881 5.36638 19.7801 5.42816 19.8319C5.49013 19.8839 5.49819 19.9762 5.44626 20.0381L5.0158 20.5511C4.98684 20.5856 4.9453 20.6034 4.90359 20.6034Z" fill="#F2F2F2"/>
<path d="M18.6658 4.20224C18.6326 4.20224 18.5992 4.19104 18.5719 4.16802C18.5099 4.11604 18.5018 4.02379 18.5538 3.96182L18.9842 3.44887C19.0362 3.38695 19.1285 3.37893 19.1903 3.43082C19.2523 3.48281 19.2604 3.5751 19.2084 3.63702L18.7781 4.14998C18.7491 4.18448 18.7076 4.20224 18.6658 4.20224Z" fill="#F2F2F2"/>
<path d="M6.47984 21.7072C6.45504 21.7072 6.42987 21.7008 6.40681 21.6875C6.33678 21.6471 6.31287 21.5576 6.35323 21.4877L6.68806 20.9077C6.72851 20.8377 6.81776 20.8136 6.88798 20.8542C6.95801 20.8946 6.98192 20.9841 6.94156 21.0541L6.60673 21.634C6.57959 21.6809 6.53042 21.7072 6.47984 21.7072Z" fill="#F2F2F2"/>
<path d="M17.1849 3.16545C17.1601 3.16545 17.1349 3.15912 17.1119 3.14581C17.0419 3.1054 17.0179 3.01592 17.0583 2.94593L17.3931 2.36599C17.4336 2.29601 17.5228 2.27182 17.5931 2.31246C17.6631 2.35287 17.687 2.44235 17.6466 2.51234L17.3118 3.09228C17.2847 3.1392 17.2355 3.16545 17.1849 3.16545Z" fill="#F2F2F2"/>
<path d="M8.22414 22.5204C8.2075 22.5204 8.19062 22.5176 8.17412 22.5116C8.09814 22.4839 8.059 22.4 8.08661 22.324L8.31569 21.6947C8.34334 21.6187 8.42734 21.5796 8.50319 21.6073C8.57917 21.6349 8.61831 21.7189 8.59066 21.7949L8.36162 22.4241C8.34001 22.4835 8.28386 22.5204 8.22414 22.5204Z" fill="#F2F2F2"/>
<path d="M15.5469 2.40149C15.5302 2.40149 15.5134 2.39863 15.4969 2.39263C15.4209 2.36497 15.3817 2.28102 15.4094 2.20503L15.6384 1.57578C15.666 1.49975 15.7502 1.4608 15.8259 1.48832C15.9019 1.51597 15.941 1.59992 15.9134 1.67591L15.6844 2.30516C15.6628 2.3646 15.6066 2.40149 15.5469 2.40149Z" fill="#F2F2F2"/>
<path d="M10.0831 23.0186C10.0747 23.0186 10.0662 23.0178 10.0576 23.0163C9.97803 23.0023 9.92487 22.9264 9.93889 22.8468L10.0552 22.1874C10.0692 22.1078 10.1448 22.0546 10.2247 22.0686C10.3043 22.0827 10.3574 22.1586 10.3434 22.2381L10.2271 22.8976C10.2146 22.9686 10.1529 23.0186 10.0831 23.0186Z" fill="#F2F2F2"/>
<path d="M13.8009 1.93372C13.7925 1.93372 13.7839 1.93297 13.7753 1.93147C13.6958 1.9174 13.6426 1.84156 13.6567 1.76197L13.773 1.10248C13.787 1.02294 13.8625 0.969966 13.9425 0.983748C14.0221 0.99781 14.0752 1.07365 14.0612 1.15325L13.9449 1.81273C13.9323 1.8837 13.8706 1.93372 13.8009 1.93372Z" fill="#F2F2F2"/>
<path d="M11.1907 2.89782C11.1156 2.89782 11.0517 2.8404 11.0451 2.76428L10.892 1.01486C10.885 0.934325 10.9445 0.863356 11.0251 0.856325C11.1057 0.848965 11.1766 0.908872 11.1836 0.989356L11.3366 2.73878C11.3436 2.81931 11.2841 2.89028 11.2036 2.89731C11.1993 2.89764 11.1949 2.89782 11.1907 2.89782Z" fill="#F2F2F2"/>
<path d="M12.962 23.1442C12.887 23.1442 12.8231 23.0867 12.8165 23.0106L12.6634 21.2612C12.6564 21.1807 12.7159 21.1097 12.7964 21.1027C12.8775 21.0953 12.9478 21.1552 12.9549 21.2357L13.108 22.9851C13.115 23.0656 13.0555 23.1366 12.9749 23.1436C12.9706 23.1439 12.9663 23.1442 12.962 23.1442Z" fill="#F2F2F2"/>
<path d="M9.59702 3.17892C9.53238 3.17892 9.47327 3.1358 9.45579 3.07045L9.00124 1.37419C8.98033 1.29609 9.0266 1.21589 9.10469 1.19498C9.18274 1.17365 9.26303 1.22039 9.28389 1.29844L9.73844 2.9947C9.75935 3.0728 9.71308 3.153 9.63499 3.1739C9.62233 3.17733 9.60954 3.17892 9.59702 3.17892Z" fill="#F2F2F2"/>
<path d="M14.8572 22.8101C14.7926 22.8101 14.7335 22.767 14.716 22.7016L14.2615 21.0054C14.2406 20.9273 14.2869 20.8471 14.3649 20.8262C14.4433 20.805 14.5232 20.8516 14.5441 20.9296L14.9986 22.6259C15.0196 22.704 14.9733 22.7842 14.8952 22.8051C14.8824 22.8085 14.8697 22.8101 14.8572 22.8101Z" fill="#F2F2F2"/>
<path d="M8.0766 3.7323C8.02147 3.7323 7.96869 3.70099 7.9439 3.64779L7.20172 2.0562C7.1676 1.98298 7.19924 1.89588 7.27246 1.86176C7.34563 1.82763 7.43287 1.85927 7.46694 1.93254L8.20912 3.52413C8.24324 3.59735 8.2116 3.68445 8.13838 3.71857C8.11841 3.7279 8.09732 3.7323 8.0766 3.7323Z" fill="#F2F2F2"/>
<path d="M16.6657 22.1519C16.6105 22.1519 16.5578 22.1205 16.533 22.0673L15.7908 20.4757C15.7567 20.4025 15.7884 20.3154 15.8616 20.2813C15.9348 20.2472 16.022 20.2789 16.0561 20.3521L16.7982 21.9437C16.8323 22.0169 16.8007 22.104 16.7274 22.1381C16.7074 22.1474 16.6864 22.1519 16.6657 22.1519Z" fill="#F2F2F2"/>
<path d="M6.67513 4.54143C6.62901 4.54143 6.58359 4.51968 6.55509 4.47904L5.54779 3.04049C5.50152 2.97426 5.51756 2.88304 5.58374 2.83668C5.65021 2.79022 5.74129 2.80649 5.7876 2.87263L6.7949 4.31118C6.84117 4.37741 6.82513 4.46863 6.75895 4.51499C6.73335 4.53285 6.70406 4.54143 6.67513 4.54143Z" fill="#F2F2F2"/>
<path d="M18.3323 21.1896C18.2862 21.1896 18.2408 21.1679 18.2123 21.1272L17.205 19.6887C17.1588 19.6224 17.1748 19.5312 17.241 19.4849C17.3074 19.4384 17.3985 19.4547 17.4448 19.5208L18.452 20.9594C18.4983 21.0256 18.4823 21.1168 18.4161 21.1632C18.3905 21.181 18.3612 21.1896 18.3323 21.1896Z" fill="#F2F2F2"/>
<path d="M5.43532 5.58171C5.39791 5.58171 5.36041 5.56741 5.33186 5.53886L4.0901 4.29705C4.03296 4.23996 4.03296 4.14724 4.0901 4.0901C4.14724 4.03296 4.23986 4.03296 4.29705 4.0901L5.53882 5.33186C5.59596 5.38896 5.59596 5.48168 5.53882 5.53882C5.51022 5.56736 5.47282 5.58171 5.43532 5.58171Z" fill="#F2F2F2"/>
<path d="M19.8064 19.9526C19.769 19.9526 19.7315 19.9383 19.703 19.9098L18.4612 18.668C18.404 18.6109 18.404 18.5182 18.4612 18.4611C18.5183 18.4039 18.611 18.4039 18.6681 18.4611L19.9099 19.7028C19.9671 19.7599 19.9671 19.8526 19.9099 19.9098C19.8813 19.9383 19.8439 19.9526 19.8064 19.9526Z" fill="#F2F2F2"/>
<path d="M4.395 6.82134C4.36603 6.82134 4.33678 6.81277 4.31118 6.79486L2.87268 5.78761C2.8065 5.7413 2.79046 5.65003 2.83673 5.5838C2.88318 5.51756 2.97426 5.50148 3.04059 5.54784L4.47909 6.55505C4.54528 6.60136 4.56131 6.69263 4.51504 6.75886C4.48654 6.79955 4.44112 6.82134 4.395 6.82134Z" fill="#F2F2F2"/>
<path d="M21.0432 18.4786C21.0143 18.4786 20.985 18.47 20.9594 18.4521L19.5209 17.4449C19.4547 17.3986 19.4387 17.3074 19.4849 17.2411C19.5314 17.175 19.6224 17.1588 19.6888 17.2052L21.1273 18.2124C21.1935 18.2587 21.2095 18.35 21.1633 18.4162C21.1348 18.4568 21.0894 18.4786 21.0432 18.4786Z" fill="#F2F2F2"/>
<path d="M3.58587 8.22282C3.56515 8.22282 3.54415 8.21841 3.52413 8.20904L1.93258 7.46691C1.85927 7.43279 1.82763 7.3457 1.86176 7.27248C1.89588 7.19926 1.98302 7.16762 2.05619 7.2017L3.64779 7.94382C3.7211 7.97795 3.75274 8.06504 3.71862 8.13826C3.69377 8.19151 3.64099 8.22282 3.58587 8.22282Z" fill="#F2F2F2"/>
<path d="M22.0054 16.8121C21.9847 16.8121 21.9637 16.8077 21.9436 16.7983L20.3521 16.0562C20.2789 16.022 20.2472 15.9349 20.2813 15.8617C20.3155 15.7885 20.4026 15.7568 20.4758 15.7909L22.0674 16.5331C22.1406 16.5672 22.1723 16.6543 22.1381 16.7275C22.1133 16.7808 22.0605 16.8121 22.0054 16.8121Z" fill="#F2F2F2"/>
<path d="M3.0326 9.74353C3.02013 9.74353 3.00738 9.74194 2.99463 9.73847L1.29831 9.28397C1.22017 9.26307 1.17391 9.18281 1.19486 9.10477C1.21572 9.02672 1.29583 8.98017 1.37406 9.00132L3.07038 9.45582C3.14852 9.47672 3.19478 9.55697 3.17383 9.63502C3.1563 9.70036 3.09714 9.74353 3.0326 9.74353Z" fill="#F2F2F2"/>
<path d="M22.6637 15.0037C22.6512 15.0037 22.6385 15.0021 22.6257 14.9986L20.9294 14.5441C20.8513 14.5232 20.805 14.4429 20.826 14.3649C20.8468 14.2868 20.9269 14.2404 21.0052 14.2614L22.7015 14.716C22.7796 14.7369 22.8259 14.8171 22.8049 14.8952C22.7875 14.9606 22.7283 15.0037 22.6637 15.0037Z" fill="#F2F2F2"/>
<path d="M2.75162 11.3372C2.74731 11.3372 2.74304 11.337 2.73868 11.3366L0.989261 11.1835C0.908777 11.1765 0.849246 11.1056 0.856277 11.025C0.863261 10.9445 0.934464 10.8847 1.01481 10.892L2.76423 11.045C2.84471 11.052 2.90425 11.123 2.89721 11.2035C2.89065 11.2798 2.82676 11.3372 2.75162 11.3372Z" fill="#F2F2F2"/>
<path d="M22.998 13.1085C22.9938 13.1085 22.9894 13.1083 22.9851 13.1079L21.2357 12.9549C21.1551 12.9478 21.0955 12.8769 21.1026 12.7963C21.1097 12.7158 21.18 12.6562 21.2611 12.6633L23.0106 12.8163C23.0911 12.8234 23.1507 12.8943 23.1436 12.9749C23.1369 13.0511 23.0731 13.1085 22.998 13.1085Z" fill="#F2F2F2"/>
<path d="M1.00187 13.1085C0.926777 13.1085 0.862886 13.0511 0.856277 12.975C0.849246 12.8945 0.908777 12.8235 0.989261 12.8165L2.73868 12.6634C2.82048 12.6564 2.89023 12.716 2.89721 12.7964C2.90425 12.877 2.84471 12.9479 2.76423 12.955L1.01481 13.108C1.01045 13.1083 1.00609 13.1085 1.00187 13.1085Z" fill="#F2F2F2"/>
<path d="M21.2483 11.3371C21.1732 11.3371 21.1093 11.2797 21.1027 11.2036C21.0957 11.1231 21.1552 11.0521 21.2358 11.0451L22.9852 10.892C23.0662 10.8844 23.1366 10.9446 23.1437 11.025C23.1508 11.1056 23.0912 11.1765 23.0107 11.1836L21.2612 11.3366C21.2569 11.3369 21.2525 11.3371 21.2483 11.3371Z" fill="#F2F2F2"/>
<path d="M1.3362 15.0037C1.27156 15.0037 1.21245 14.9606 1.19496 14.8952C1.17406 14.8171 1.22032 14.7369 1.29842 14.716L2.99473 14.2615C3.07259 14.2402 3.15298 14.2869 3.17393 14.3649C3.19484 14.443 3.14857 14.5232 3.07048 14.5441L1.37417 14.9987C1.36151 15.0021 1.34867 15.0037 1.3362 15.0037Z" fill="#F2F2F2"/>
<path d="M20.9673 9.74361C20.9027 9.74361 20.8436 9.70048 20.8261 9.63514C20.8052 9.55705 20.8514 9.47684 20.9295 9.45594L22.6258 9.00144C22.7038 8.9803 22.7841 9.02684 22.805 9.10489C22.8259 9.18298 22.7797 9.26319 22.7016 9.28409L21.0053 9.73859C20.9926 9.74197 20.9798 9.74361 20.9673 9.74361Z" fill="#F2F2F2"/>
<path d="M1.99446 16.8121C1.93933 16.8121 1.88655 16.7808 1.86176 16.7275C1.82763 16.6543 1.85927 16.5672 1.93258 16.5331L3.52418 15.7909C3.59707 15.7568 3.68444 15.7885 3.71862 15.8617C3.75279 15.9349 3.7211 16.022 3.64779 16.0562L2.05619 16.7983C2.03627 16.8076 2.01518 16.8121 1.99446 16.8121Z" fill="#F2F2F2"/>
<path d="M20.414 8.22277C20.3589 8.22277 20.3061 8.19146 20.2813 8.13826C20.2472 8.06504 20.2788 7.97795 20.352 7.94382L21.9436 7.2017C22.0168 7.16762 22.104 7.19926 22.1381 7.27248C22.1722 7.3457 22.1406 7.43279 22.0673 7.46691L20.4758 8.20904C20.4558 8.21837 20.4348 8.22277 20.414 8.22277Z" fill="#F2F2F2"/>
<path d="M2.95678 18.4785C2.91065 18.4785 2.86523 18.4568 2.83673 18.4161C2.79046 18.3499 2.8065 18.2587 2.87268 18.2123L4.31118 17.2051C4.37765 17.1586 4.46873 17.1749 4.51504 17.241C4.56131 17.3073 4.54528 17.3985 4.47909 17.4449L3.04059 18.4521C3.01504 18.4699 2.98575 18.4785 2.95678 18.4785Z" fill="#F2F2F2"/>
<path d="M19.605 6.82139C19.5588 6.82139 19.5134 6.79964 19.4849 6.759C19.4387 6.69276 19.4547 6.60154 19.5209 6.55518L20.9594 5.54798C21.0259 5.50153 21.1169 5.51779 21.1633 5.58393C21.2095 5.65017 21.1935 5.74139 21.1273 5.78775L19.6888 6.79495C19.6632 6.81276 19.6339 6.82139 19.605 6.82139Z" fill="#F2F2F2"/>
<path d="M4.19355 19.9526C4.15614 19.9526 4.11864 19.9383 4.0901 19.9098C4.03296 19.8527 4.03296 19.76 4.0901 19.7028L5.33186 18.4611C5.389 18.4039 5.48163 18.4039 5.53882 18.4611C5.59596 18.5182 5.59596 18.6109 5.53882 18.668L4.29705 19.9098C4.26846 19.9383 4.23096 19.9526 4.19355 19.9526Z" fill="#F2F2F2"/>
<path d="M18.5646 5.58166C18.5272 5.58166 18.4897 5.56736 18.4612 5.53882C18.404 5.48172 18.404 5.389 18.4612 5.33186L19.703 4.0901C19.7601 4.03296 19.8527 4.03296 19.9099 4.0901C19.9671 4.14719 19.9671 4.23991 19.9099 4.29705L18.6681 5.53882C18.6395 5.56732 18.602 5.58166 18.5646 5.58166Z" fill="#F2F2F2"/>
<path d="M5.66756 21.1896C5.63859 21.1896 5.60934 21.181 5.58374 21.1631C5.51756 21.1168 5.50152 21.0256 5.54779 20.9593L6.55509 19.5208C6.60154 19.4546 6.69262 19.4385 6.75895 19.4848C6.82513 19.5311 6.84117 19.6224 6.7949 19.6886L5.7876 21.1272C5.75906 21.1679 5.71373 21.1896 5.66756 21.1896Z" fill="#F2F2F2"/>
<path d="M17.3248 4.54146C17.2958 4.54146 17.2666 4.53288 17.241 4.51497C17.1748 4.46866 17.1588 4.3774 17.205 4.31116L18.2123 2.87262C18.2587 2.80638 18.3499 2.7903 18.4161 2.83666C18.4823 2.88297 18.4983 2.97424 18.4521 3.04047L17.4449 4.47902C17.4163 4.51971 17.371 4.54146 17.3248 4.54146Z" fill="#F2F2F2"/>
<path d="M7.33419 22.1519C7.31347 22.1519 7.29242 22.1475 7.27236 22.1381C7.19914 22.104 7.16745 22.0169 7.20162 21.9437L7.94379 20.3521C7.97787 20.2789 8.06511 20.2472 8.13828 20.2813C8.2115 20.3154 8.24318 20.4025 8.20901 20.4757L7.46684 22.0673C7.44209 22.1206 7.38931 22.1519 7.33419 22.1519Z" fill="#F2F2F2"/>
<path d="M15.9234 3.73235C15.9027 3.73235 15.8817 3.72795 15.8616 3.71857C15.7884 3.68445 15.7567 3.59735 15.7909 3.52413L16.533 1.93254C16.5671 1.85927 16.6543 1.82763 16.7275 1.86176C16.8007 1.89588 16.8324 1.98298 16.7982 2.0562L16.0561 3.64779C16.0312 3.70109 15.9784 3.73235 15.9234 3.73235Z" fill="#F2F2F2"/>
<path d="M9.14268 22.81C9.13021 22.81 9.11741 22.8084 9.10471 22.8049C9.02657 22.784 8.9803 22.7038 9.00126 22.6257L9.4558 20.9295C9.47671 20.8515 9.55705 20.8049 9.63501 20.826C9.71315 20.8469 9.75941 20.9272 9.73846 21.0052L9.28391 22.7015C9.26643 22.7669 9.20727 22.81 9.14268 22.81Z" fill="#F2F2F2"/>
<path d="M14.4029 3.17895C14.3905 3.17895 14.3777 3.17736 14.365 3.17389C14.2868 3.15298 14.2406 3.07273 14.2615 2.99469L14.716 1.29842C14.7369 1.22037 14.8168 1.17369 14.8952 1.19497C14.9734 1.21587 15.0196 1.29612 14.9987 1.37417L14.5442 3.07044C14.5267 3.13578 14.4675 3.17895 14.4029 3.17895Z" fill="#F2F2F2"/>
<path d="M11.0378 23.1443C11.0336 23.1443 11.0293 23.1441 11.025 23.1436C10.9444 23.1366 10.8849 23.0656 10.8919 22.9851L11.045 21.2357C11.052 21.1552 11.1229 21.0953 11.2035 21.1027C11.284 21.1097 11.3436 21.1806 11.3365 21.2612L11.1834 23.0106C11.1768 23.0868 11.1129 23.1443 11.0378 23.1443Z" fill="#F2F2F2"/>
<path d="M12.8092 2.8978C12.805 2.8978 12.8006 2.89762 12.7963 2.89719C12.7158 2.89016 12.6562 2.81924 12.6633 2.73866L12.8163 0.989241C12.8233 0.908756 12.8935 0.848803 12.9748 0.85621C13.0554 0.863241 13.1149 0.934163 13.1079 1.01474L12.9548 2.76416C12.9482 2.84043 12.8844 2.8978 12.8092 2.8978Z" fill="#F2F2F2"/>
<path d="M13.4497 13.4497L19.9161 4.08386L10.5502 10.5502L4.08386 19.9161L13.4497 13.4497Z" fill="#F2F2F2"/>
<path d="M13.4497 13.4497L19.9161 4.08386L4.08386 19.9161L13.4497 13.4497Z" fill="#CCCCCC"/>
<path d="M13.4498 13.4497L19.9162 4.08386L10.5503 10.5502L13.4498 13.4497Z" fill="#FF525D"/>
<path d="M13.4498 13.4497L19.9161 4.08386L12 12L13.4498 13.4497Z" fill="#EF4152"/>
</g>
<defs>
<clipPath id="clip0_317_4569">
<rect width="24" height="24" fill="white"/>
</clipPath>
</defs>
</svg>
