<svg width="24" height="24" viewBox="0 0 24 24" fill="none" xmlns="http://www.w3.org/2000/svg">
<path d="M3.41723 0H20.5828C21.2962 0 21.8744 0.578257 21.8744 1.29161V22.7084C21.8744 23.4217 21.2962 24 20.5828 24H3.41723C2.70387 24 2.12561 23.4217 2.12561 22.7084V1.29161C2.12561 0.578257 2.70387 0 3.41723 0Z" fill="#565959"/>
<path d="M3.41724 1.29163H20.5831V21.0943H3.41724V1.29163Z" fill="#69B0EE"/>
<path d="M12.0001 23.2461C12.3974 23.2461 12.7195 22.924 12.7195 22.5267C12.7195 22.1294 12.3974 21.8073 12.0001 21.8073C11.6027 21.8073 11.2806 22.1294 11.2806 22.5267C11.2806 22.924 11.6027 23.2461 12.0001 23.2461Z" fill="#828A9E"/>
<path opacity="0.2" d="M9.49832 21.0943H6.53723L16.5461 1.29163H19.5072L9.49832 21.0943Z" fill="#EEEFEE"/>
</svg>
