<svg width="257" height="257" viewBox="0 0 257 257" fill="none" xmlns="http://www.w3.org/2000/svg">
<circle opacity="0.5" cx="128.5" cy="128.5" r="82" stroke="#0E5DF6"/>
<circle opacity="0.3" cx="128.5" cy="128.5" r="106" stroke="#0E5DF6"/>
<circle opacity="0.1" cx="128.5" cy="128.5" r="128" stroke="#0E5DF6"/>
<path d="M128.505 151.264C115.932 151.264 105.74 141.072 105.74 128.5C105.74 115.927 115.932 105.735 128.505 105.735C141.078 105.735 151.27 115.927 151.27 128.5C151.27 141.072 141.078 151.264 128.505 151.264Z" fill="#071625"/>
<path d="M84.5789 137.702C78.0537 138.831 73.5811 145.019 76.0859 151.041C79.5829 159.449 85.1619 166.94 92.3948 172.793C102.737 181.162 115.782 185.635 129.183 185.405C142.585 185.176 155.463 180.259 165.501 171.54C172.521 165.443 177.831 157.765 181.027 149.243C183.316 143.139 178.626 137.108 172.065 136.203C165.504 135.297 159.613 139.986 156.372 145.66C154.615 148.735 152.334 151.525 149.602 153.898C143.842 158.901 136.454 161.721 128.765 161.853C121.076 161.985 113.591 159.419 107.657 154.617C104.842 152.339 102.464 149.629 100.599 146.615C97.1583 141.056 91.1041 136.572 84.5789 137.702Z" fill="#0E5DF6"/>
<path d="M184.974 134.165C185.264 131.888 185.414 129.568 185.414 127.214C185.414 96.4936 159.933 71.5901 128.502 71.5901C97.0704 71.5901 71.5901 96.4936 71.5901 127.214C71.5901 130.235 71.8365 133.2 72.3108 136.09C74.9249 132.592 79.0048 130.096 83.4116 129.336C88.1797 128.515 92.5131 129.645 96.177 131.757C95.9605 130.273 95.8485 128.756 95.8485 127.214C95.8485 109.588 110.468 95.2995 128.502 95.2995C146.536 95.2995 161.155 109.588 161.155 127.214C161.155 128.376 161.091 129.524 160.968 130.653C164.554 128.416 168.845 127.138 173.641 127.797C178.071 128.406 182.236 130.76 184.974 134.165Z" fill="#0E5DF6"/>
</svg>
