<svg width="105" height="105" viewBox="0 0 105 105" fill="none" xmlns="http://www.w3.org/2000/svg">
<circle opacity="0.2" cx="52.5" cy="52.5" r="41.5" fill="#E24C4B"/>
<circle opacity="0.1" cx="52.5" cy="52.5" r="52.5" fill="#E24C4B"/>
<g clip-path="url(#clip0_618_5771)">
<path d="M52.0001 85.0001C69.6732 85.0001 84.0001 70.6732 84.0001 53.0001C84.0001 35.3269 69.6732 21 52.0001 21C34.3269 21 20 35.3269 20 53.0001C20 70.6732 34.3269 85.0001 52.0001 85.0001Z" fill="#E24C4B"/>
<path d="M63.3033 64.3033C62.3743 65.2323 60.8258 65.2323 59.8968 64.3033L52 56.4065L44.1032 64.3033C43.1742 65.2323 41.6257 65.2323 40.6967 64.3033C39.7677 63.3743 39.7677 61.8258 40.6967 60.8968L48.5935 53L40.6967 45.1032C39.7677 44.1742 39.7677 42.6257 40.6967 41.6967C41.6257 40.7677 43.1742 40.7677 44.1032 41.6967L52 49.5935L59.8968 41.6967C60.8258 40.7677 62.3743 40.7677 63.3033 41.6967C64.2323 42.6257 64.2323 44.1742 63.3033 45.1032L55.4065 53L63.3033 60.8968C64.2323 61.8258 64.2323 63.3741 63.3033 64.3033Z" fill="white"/>
</g>
<defs>
<clipPath id="clip0_618_5771">
<rect width="64" height="64" fill="white" transform="translate(20 21)"/>
</clipPath>
</defs>
</svg>
