<svg width="319" height="194" viewBox="0 0 319 194" fill="none" xmlns="http://www.w3.org/2000/svg">
<path d="M0 27.8491V13.6886V8C0 3.58172 3.58172 0 8 0H69.1034C70.7294 0 72.3167 0.495453 73.654 1.42035L89.3387 12.2682C90.676 13.1931 92.2633 13.6886 93.8893 13.6886H311C315.418 13.6886 319 17.2703 319 21.6886V186C319 190.418 315.418 194 311 194H8C3.58172 194 0 190.418 0 186V27.8491Z" fill="white"/>
<path d="M0.5 27.8491V13.6886V8C0.5 3.85786 3.85786 0.5 8 0.5H69.1034C70.6277 0.5 72.1159 0.964488 73.3696 1.83158L89.0543 12.6794C90.4751 13.6621 92.1617 14.1886 93.8893 14.1886H311C315.142 14.1886 318.5 17.5464 318.5 21.6886V186C318.5 190.142 315.142 193.5 311 193.5H8C3.85786 193.5 0.5 190.142 0.5 186V27.8491Z" stroke="#505C75" stroke-opacity="0.1"/>
</svg>
