<svg width="100" height="100" viewBox="0 0 100 100" fill="none" xmlns="http://www.w3.org/2000/svg">
<g clip-path="url(#clip0_1028_1146)">
<path d="M35.1833 22.3309L51.2508 6.26343L67.3183 22.3309" stroke="#E3E7EF" stroke-width="0.767291" stroke-linecap="round" stroke-linejoin="round"/>
<path d="M51.2495 6.26343L51.2535 96.2283" stroke="#E3E7EF" stroke-width="0.767291" stroke-linecap="round" stroke-linejoin="round"/>
<path d="M35.1833 80.1655L51.2508 96.233L67.3183 80.1655" stroke="#E3E7EF" stroke-width="0.767291" stroke-linecap="round" stroke-linejoin="round"/>
<path d="M80.1699 35.1838L96.2374 51.2513L80.1699 67.3188" stroke="#E3E7EF" stroke-width="0.767291" stroke-linecap="round" stroke-linejoin="round"/>
<path d="M22.3397 35.1838L6.27222 51.2513L22.3397 67.3188" stroke="#E3E7EF" stroke-width="0.767291" stroke-linecap="round" stroke-linejoin="round"/>
<path d="M6.27222 51.2468H96.2371" stroke="#E3E7EF" stroke-width="0.767291" stroke-linecap="round" stroke-linejoin="round"/>
<g clip-path="url(#clip1_1028_1146)">
<path d="M52.235 18.1823L74.2597 12.5928L79.8491 34.6175" stroke="#E3E7EF" stroke-width="0.767291" stroke-linecap="round" stroke-linejoin="round"/>
<path d="M74.2581 12.592L28.2496 89.9025" stroke="#E3E7EF" stroke-width="0.767291" stroke-linecap="round" stroke-linejoin="round"/>
<path d="M22.656 67.8804L28.2455 89.905L50.2701 84.3155" stroke="#E3E7EF" stroke-width="0.767291" stroke-linecap="round" stroke-linejoin="round"/>
<path d="M84.3193 52.2354L89.9088 74.26L67.8842 79.8494" stroke="#E3E7EF" stroke-width="0.767291" stroke-linecap="round" stroke-linejoin="round"/>
<path d="M34.6239 22.658L12.5993 28.2475L18.1888 50.2721" stroke="#E3E7EF" stroke-width="0.767291" stroke-linecap="round" stroke-linejoin="round"/>
<path d="M12.6018 28.2437L89.9102 74.2556" stroke="#E3E7EF" stroke-width="0.767291" stroke-linecap="round" stroke-linejoin="round"/>
</g>
<path d="M71.2409 48.951H65.4067C64.8885 41.2685 58.7312 35.1111 51.0486 34.5929V28.7587C51.0486 28.1789 50.5787 27.7097 49.9997 27.7097C49.42 27.7097 48.9507 28.1789 48.9507 28.7587V34.5929C41.2682 35.1111 35.1109 41.2685 34.5927 48.951H28.7584C28.1787 48.951 27.7095 49.4202 27.7095 49.9999C27.7095 50.5789 28.1787 51.0489 28.7584 51.0489H34.5927C35.1109 58.7314 41.2682 64.8887 48.9507 65.4069V71.2412C48.9507 71.8202 49.42 72.2901 49.9997 72.2901C50.5787 72.2901 51.0486 71.8202 51.0486 71.2412V65.4069C58.7312 64.8887 64.8885 58.7314 65.4067 51.0489H71.2409C71.82 51.0489 72.2899 50.5789 72.2899 49.9999C72.2899 49.4202 71.82 48.951 71.2409 48.951ZM49.9997 58.2475C45.4521 58.2475 41.7521 54.5475 41.7521 49.9999C41.7521 45.4524 45.4521 41.7524 49.9997 41.7524C54.5472 41.7524 58.2472 45.4524 58.2472 49.9999C58.2472 54.5475 54.5472 58.2475 49.9997 58.2475Z" fill="#071625"/>
<path d="M50.0002 43.8506C46.6093 43.8506 43.8506 46.6093 43.8506 50.0002C43.8506 53.3911 46.6093 56.1499 50.0002 56.1499C53.3911 56.1499 56.1499 53.3911 56.1499 50.0002C56.1499 46.6093 53.3911 43.8506 50.0002 43.8506Z" fill="#0E5DF6"/>
</g>
<defs>
<clipPath id="clip0_1028_1146">
<rect width="100" height="100" fill="white"/>
</clipPath>
<clipPath id="clip1_1028_1146">
<rect width="102.817" height="102.817" fill="white" transform="translate(33.3667 -19.2188) rotate(30.76)"/>
</clipPath>
</defs>
</svg>
