<svg width="242" height="242" viewBox="0 0 242 242" fill="none" xmlns="http://www.w3.org/2000/svg">
<path d="M93.4121 71.3433L121.001 43.7543L148.59 71.3433" stroke="#E3E7EF" stroke-width="1.3175" stroke-linecap="round" stroke-linejoin="round"/>
<path d="M120.997 43.7543L121.003 198.231" stroke="#E3E7EF" stroke-width="1.3175" stroke-linecap="round" stroke-linejoin="round"/>
<path d="M93.4121 170.65L121.001 198.239L148.59 170.65" stroke="#E3E7EF" stroke-width="1.3175" stroke-linecap="round" stroke-linejoin="round"/>
<path d="M170.661 93.4126L198.25 121.002L170.661 148.591" stroke="#E3E7EF" stroke-width="1.3175" stroke-linecap="round" stroke-linejoin="round"/>
<path d="M71.359 93.4126L43.77 121.002L71.359 148.591" stroke="#E3E7EF" stroke-width="1.3175" stroke-linecap="round" stroke-linejoin="round"/>
<path d="M43.77 120.994H198.246" stroke="#E3E7EF" stroke-width="1.3175" stroke-linecap="round" stroke-linejoin="round"/>
<g clip-path="url(#clip0_0_1)">
<path d="M122.69 64.2198L160.508 54.6223L170.105 92.4402" stroke="#E3E7EF" stroke-width="1.3175" stroke-linecap="round" stroke-linejoin="round"/>
<path d="M160.506 54.6208L81.506 187.369" stroke="#E3E7EF" stroke-width="1.3175" stroke-linecap="round" stroke-linejoin="round"/>
<path d="M71.9028 149.556L81.5003 187.374L119.318 177.776" stroke="#E3E7EF" stroke-width="1.3175" stroke-linecap="round" stroke-linejoin="round"/>
<path d="M177.781 122.692L187.378 160.51L149.56 170.107" stroke="#E3E7EF" stroke-width="1.3175" stroke-linecap="round" stroke-linejoin="round"/>
<path d="M92.4543 71.905L54.6364 81.5025L64.2339 119.32" stroke="#E3E7EF" stroke-width="1.3175" stroke-linecap="round" stroke-linejoin="round"/>
<path d="M54.6392 81.4968L187.383 160.503" stroke="#E3E7EF" stroke-width="1.3175" stroke-linecap="round" stroke-linejoin="round"/>
</g>
<path d="M158.384 119.154H148.116C147.204 105.633 136.367 94.7957 122.846 93.8837V83.6154C122.846 82.5951 122.019 81.7693 121 81.7693C119.98 81.7693 119.154 82.5951 119.154 83.6154V93.8837C105.632 94.7957 94.7955 105.633 93.8835 119.154H83.6152C82.5949 119.154 81.769 119.98 81.769 121C81.769 122.019 82.5949 122.846 83.6152 122.846H93.8835C94.7955 136.367 105.632 147.204 119.154 148.116V158.385C119.154 159.404 119.98 160.231 121 160.231C122.019 160.231 122.846 159.404 122.846 158.385V148.116C136.367 147.204 147.204 136.367 148.116 122.846H158.384C159.404 122.846 160.231 122.019 160.231 121C160.231 119.98 159.404 119.154 158.384 119.154ZM121 135.516C112.996 135.516 106.484 129.004 106.484 121C106.484 112.996 112.996 106.484 121 106.484C129.004 106.484 135.516 112.996 135.516 121C135.516 129.004 129.004 135.516 121 135.516Z" fill="#071625"/>
<path d="M121 110.177C115.032 110.177 110.177 115.032 110.177 121C110.177 126.968 115.032 131.824 121 131.824C126.968 131.824 131.824 126.968 131.824 121C131.824 115.032 126.968 110.177 121 110.177Z" fill="#0E5DF6"/>
<defs>
<clipPath id="clip0_0_1">
<rect width="176.544" height="176.544" fill="white" transform="translate(90.2925) rotate(30.76)"/>
</clipPath>
</defs>
</svg>
