<svg width="24" height="24" viewBox="0 0 24 24" fill="none" xmlns="http://www.w3.org/2000/svg">
<path d="M11.9999 16.2352C9.66086 16.2352 7.76465 14.339 7.76465 11.9999C7.76465 9.66086 9.66086 7.76465 11.9999 7.76465C14.339 7.76465 16.2352 9.66086 16.2352 11.9999C16.2352 14.339 14.339 16.2352 11.9999 16.2352Z" fill="#071625"/>
<path d="M3.82913 13.7116C2.61514 13.9217 1.78301 15.073 2.24902 16.1934C2.89963 17.7576 3.93759 19.1512 5.28323 20.2402C7.2074 21.7973 9.63434 22.6294 12.1276 22.5866C14.6209 22.5439 17.0168 21.6292 18.8845 20.0071C20.1905 18.8727 21.1783 17.4443 21.773 15.8588C22.1989 14.7231 21.3263 13.6011 20.1056 13.4327C18.8849 13.2643 17.7889 14.1365 17.1859 15.1921C16.8591 15.7642 16.4348 16.2833 15.9265 16.7248C14.8549 17.6556 13.4802 18.1803 12.0498 18.2049C10.6192 18.2293 9.22673 17.752 8.12274 16.8585C7.59902 16.4347 7.15657 15.9305 6.80958 15.3699C6.16948 14.3357 5.04312 13.5014 3.82913 13.7116Z" fill="#0E5DF6"/>
<path d="M22.5062 13.0535C22.5603 12.6299 22.5881 12.1983 22.5881 11.7603C22.5881 6.04496 17.8476 1.41174 11.9999 1.41174C6.15214 1.41174 1.41162 6.04496 1.41162 11.7603C1.41162 12.3224 1.45747 12.874 1.54571 13.4117C2.03205 12.761 2.7911 12.2965 3.61098 12.1552C4.49806 12.0023 5.30427 12.2126 5.98593 12.6057C5.94566 12.3296 5.92482 12.0473 5.92482 11.7603C5.92482 8.48113 8.64473 5.82279 11.9999 5.82279C15.355 5.82279 18.0749 8.48113 18.0749 11.7603C18.0749 11.9765 18.063 12.1901 18.04 12.4003C18.7073 11.9841 19.5056 11.7462 20.3978 11.8688C21.222 11.9821 21.9969 12.4201 22.5062 13.0535Z" fill="#0E5DF6"/>
</svg>
