<svg width="120" height="120" viewBox="0 0 120 120" fill="none" xmlns="http://www.w3.org/2000/svg">
<g clip-path="url(#clip0_300_7949)">
<path d="M60 120C43.0673 120 24.8438 115.599 24.8438 105.937C24.8438 100.427 30.9274 96.067 41.9756 93.6637L43.4726 100.537C34.0104 102.593 31.875 105.491 31.875 105.937C31.875 107.743 41.543 112.969 60 112.969C78.457 112.969 88.125 107.743 88.125 105.937C88.125 105.491 85.9896 102.593 76.5277 100.537L78.0246 93.6637C89.0726 96.067 95.1562 100.427 95.1562 105.937C95.1562 115.599 76.9327 120 60 120Z" fill="#7BA8FF"/>
<path d="M95.1562 105.937C95.1562 100.427 89.0726 96.067 78.0244 93.6637L76.5274 100.537C85.9896 102.593 88.125 105.491 88.125 105.937C88.125 107.743 78.457 112.969 60 112.969V120C76.9327 120 95.1562 115.599 95.1562 105.937Z" fill="#0E5DF6"/>
<path fill-rule="evenodd" clip-rule="evenodd" d="M29.7945 62.8247L60 101.014L90.2056 62.8247C95.6644 55.9995 98.6719 47.4232 98.6719 38.6719C98.6719 17.3482 81.3204 0 60 0C38.6796 0 21.3281 17.3482 21.3281 38.6719C21.3281 47.4232 24.3356 55.9995 29.7945 62.8247ZM60 49C67.732 49 74 42.732 74 35C74 27.268 67.732 21 60 21C52.268 21 46 27.268 46 35C46 42.732 52.268 49 60 49Z" fill="#FF7373"/>
<path fill-rule="evenodd" clip-rule="evenodd" d="M98.6719 38.6719C98.6719 47.4232 95.6644 55.9995 90.2056 62.8247L60 101.014V49C67.732 49 74 42.732 74 35C74 27.268 67.732 21 60 21V0C81.3204 0 98.6719 17.3482 98.6719 38.6719Z" fill="#FF3D3D"/>
</g>
<defs>
<clipPath id="clip0_300_7949">
<rect width="120" height="120" fill="white"/>
</clipPath>
</defs>
</svg>
