<svg width="32" height="20" viewBox="0 0 32 20" fill="none" xmlns="http://www.w3.org/2000/svg">
<g clip-path="url(#clip0_105_5230)">
<path fill-rule="evenodd" clip-rule="evenodd" d="M11.554 17.8362H20.1186V2.13498H11.554V17.8362Z" fill="#FF5F00"/>
<path fill-rule="evenodd" clip-rule="evenodd" d="M12.0978 9.98559C12.0978 6.80019 13.5597 3.96317 15.8363 2.13497C14.1712 0.797738 12.0706 0 9.78726 0C4.38179 0 0 4.47077 0 9.98559C0 15.5004 4.38179 19.9712 9.78726 19.9712C12.0706 19.9712 14.1712 19.1734 15.8363 17.8362C13.5597 16.0077 12.0978 13.171 12.0978 9.98559Z" fill="#EB001B"/>
<path fill-rule="evenodd" clip-rule="evenodd" d="M31.367 16.1732V15.7857H31.2678L31.1539 16.0523L31.0397 15.7857H30.9405V16.1732H31.0103V15.8809L31.1175 16.133H31.19L31.2972 15.8803V16.1732H31.367ZM30.7387 16.1732V15.8518H30.866V15.7863H30.5424V15.8518H30.6694V16.1732H30.7387ZM31.6727 9.9855C31.6727 15.5003 27.2906 19.9711 21.8854 19.9711C19.6021 19.9711 17.5012 19.1734 15.8364 17.8361C18.1129 16.0079 19.5749 13.1709 19.5749 9.9855C19.5749 6.80037 18.1129 3.96336 15.8364 2.13488C17.5012 0.797646 19.6021 -9.15527e-05 21.8854 -9.15527e-05C27.2906 -9.15527e-05 31.6727 4.47068 31.6727 9.9855Z" fill="#F79E1B"/>
</g>
<defs>
<clipPath id="clip0_105_5230">
<rect width="32" height="20" fill="white"/>
</clipPath>
</defs>
</svg>
