<svg width="159" height="133" viewBox="0 0 159 133" fill="none" xmlns="http://www.w3.org/2000/svg">
<g clip-path="url(#clip0_757_1271)">
<path d="M89.7364 2.97324L117.397 -4.04643L124.416 23.6138" stroke="#12212F" stroke-linecap="round" stroke-linejoin="round"/>
<path d="M117.392 -4.04761L59.6107 93.0447" stroke="#12212F" stroke-linecap="round" stroke-linejoin="round"/>
<path d="M52.5815 65.3909L59.6012 93.0511L87.2614 86.0314" stroke="#12212F" stroke-linecap="round" stroke-linejoin="round"/>
<path d="M130.033 45.7336L137.053 73.3938L109.393 80.4135" stroke="#12212F" stroke-linecap="round" stroke-linejoin="round"/>
<path d="M67.6153 8.59493L39.9551 15.6146L46.9748 43.2748" stroke="#12212F" stroke-linecap="round" stroke-linejoin="round"/>
<path d="M39.9561 15.6099L137.046 73.3951" stroke="#12212F" stroke-linecap="round" stroke-linejoin="round"/>
</g>
<path d="M68.3213 8.17849L88.5 -12.0002L108.679 8.17849" stroke="#12212F" stroke-linecap="round" stroke-linejoin="round"/>
<path d="M88.502 -12.0002L88.507 100.985" stroke="#12212F" stroke-linecap="round" stroke-linejoin="round"/>
<path d="M68.3213 80.8079L88.5 100.987L108.679 80.8079" stroke="#12212F" stroke-linecap="round" stroke-linejoin="round"/>
<path d="M124.824 24.3215L145.003 44.5003L124.824 64.679" stroke="#12212F" stroke-linecap="round" stroke-linejoin="round"/>
<path d="M52.1944 24.3215L32.0156 44.5003L52.1944 64.679" stroke="#12212F" stroke-linecap="round" stroke-linejoin="round"/>
<path d="M32.0156 44.5022H145" stroke="#12212F" stroke-linecap="round" stroke-linejoin="round"/>
<defs>
<clipPath id="clip0_757_1271">
<rect width="129.125" height="129.125" fill="white" transform="translate(66.0405 -44) rotate(30.76)"/>
</clipPath>
</defs>
</svg>
