<svg width="368" height="150" viewBox="0 0 368 150" fill="none" xmlns="http://www.w3.org/2000/svg">
<g clip-path="url(#clip0_223_588)">
<path d="M186.246 -11.5041L243.655 -26.0734L258.224 31.3354" stroke="#E3E7EF" stroke-opacity="0.1" stroke-width="2" stroke-linecap="round" stroke-linejoin="round"/>
<path d="M243.661 -26.0859L123.737 175.429" stroke="#E3E7EF" stroke-opacity="0.1" stroke-width="2" stroke-linecap="round" stroke-linejoin="round"/>
<path d="M109.15 118.024L123.72 175.433L181.128 160.864" stroke="#E3E7EF" stroke-opacity="0.1" stroke-width="2" stroke-linecap="round" stroke-linejoin="round"/>
<path d="M269.876 77.2542L284.445 134.663L227.036 149.232" stroke="#E3E7EF" stroke-opacity="0.1" stroke-width="2" stroke-linecap="round" stroke-linejoin="round"/>
<path d="M140.347 0.158265L82.9387 14.7276L97.508 72.1364" stroke="#E3E7EF" stroke-opacity="0.1" stroke-width="2" stroke-linecap="round" stroke-linejoin="round"/>
<path d="M82.9355 14.717L284.445 134.65" stroke="#E3E7EF" stroke-opacity="0.1" stroke-width="2" stroke-linecap="round" stroke-linejoin="round"/>
</g>
<path d="M141.803 -0.691028L183.684 -42.572L225.565 -0.691028" stroke="#E3E7EF" stroke-opacity="0.1" stroke-width="2" stroke-linecap="round" stroke-linejoin="round"/>
<path d="M183.686 -42.572L183.696 191.928" stroke="#E3E7EF" stroke-opacity="0.1" stroke-width="2" stroke-linecap="round" stroke-linejoin="round"/>
<path d="M141.803 150.044L183.684 191.925L225.565 150.044" stroke="#E3E7EF" stroke-opacity="0.1" stroke-width="2" stroke-linecap="round" stroke-linejoin="round"/>
<path d="M259.061 32.803L300.942 74.684L259.061 116.565" stroke="#E3E7EF" stroke-opacity="0.1" stroke-width="2" stroke-linecap="round" stroke-linejoin="round"/>
<path d="M108.325 32.803L66.4443 74.684L108.325 116.565" stroke="#E3E7EF" stroke-opacity="0.1" stroke-width="2" stroke-linecap="round" stroke-linejoin="round"/>
<path d="M66.4443 74.6689H300.944" stroke="#E3E7EF" stroke-opacity="0.1" stroke-width="2" stroke-linecap="round" stroke-linejoin="round"/>
<defs>
<clipPath id="clip0_223_588">
<rect width="268" height="268" fill="white" transform="translate(137.066 -109) rotate(30.76)"/>
</clipPath>
</defs>
</svg>
