<svg width="118" height="102" viewBox="0 0 118 102" fill="none" xmlns="http://www.w3.org/2000/svg">
<path d="M73.8974 102V72.9049C73.8974 53.2852 78.712 37.2328 88.341 24.7475C97.9701 12.0393 112.19 3.79017 131 0V25.082C123.162 26.8656 116.668 30.2098 111.518 35.1148C106.591 39.7967 103.344 45.3705 101.777 51.8361H124.282V102H73.8974ZM0 102V72.9049C0 53.2852 4.81453 37.2328 14.4436 24.7475C24.0727 12.0393 38.2923 3.79017 57.1026 0V25.082C49.265 26.8656 42.7709 30.2098 37.6205 35.1148C32.694 39.7967 29.447 45.3705 27.8795 51.8361H50.3846V102H0Z" fill="white" fill-opacity="0.03"/>
</svg>
