<svg width="256" height="173" viewBox="0 0 256 173" fill="none" xmlns="http://www.w3.org/2000/svg">
<path d="M58.0448 172.063C46.6898 172.063 36.6048 169.676 27.7898 164.903C19.1242 159.98 12.3261 153.417 7.39567 145.213C2.46522 136.86 0 127.388 0 116.797C0 111.427 0.522926 106.057 1.56878 100.687C2.76404 95.3169 4.85574 89.574 7.84389 83.4583C10.9814 77.3425 15.4637 70.5554 21.2906 63.0971L67.9057 2.68498H104.212L47.5116 75.4033L42.5811 70.0333C44.6728 68.3925 46.8392 67.1246 49.0803 66.2296C51.3215 65.1854 53.5626 64.4396 55.8037 63.9921C58.1942 63.5446 60.6594 63.3209 63.1993 63.3209C73.3591 63.3209 82.3982 65.6329 90.3168 70.2571C98.2354 74.8812 104.436 81.2208 108.918 89.2757C113.55 97.1815 115.865 106.131 115.865 116.126C115.865 126.865 113.4 136.487 108.47 144.989C103.539 153.342 96.6666 159.98 87.8516 164.903C79.1859 169.676 69.2503 172.063 58.0448 172.063ZM58.0448 144.542C63.1246 144.542 67.6816 143.423 71.7156 141.185C75.899 138.799 79.1859 135.443 81.5765 131.117C84.1164 126.791 85.3864 121.943 85.3864 116.573C85.3864 110.905 84.1164 106.057 81.5765 102.029C79.1859 97.8527 75.9737 94.5711 71.9397 92.1844C67.9057 89.7978 63.2741 88.6045 58.0448 88.6045C52.9649 88.6045 48.3333 89.7978 44.1499 92.1844C39.9665 94.5711 36.6048 97.8527 34.0649 102.029C31.6744 106.057 30.4791 110.905 30.4791 116.573C30.4791 121.943 31.6744 126.791 34.0649 131.117C36.6048 135.443 39.9665 138.799 44.1499 141.185C48.3333 143.423 52.9649 144.542 58.0448 144.542Z" fill="white"/>
<path d="M195.999 172.063C183.897 172.063 173.364 169.825 164.4 165.35C155.584 160.726 148.712 154.536 143.781 146.779C139 139.022 136.61 130.52 136.61 121.272C136.61 110.383 139.523 101.209 145.35 93.7507C151.177 86.1432 159.619 80.5495 170.675 76.9695L168.882 84.3532C160.963 81.8174 154.688 76.895 150.056 69.5858C145.574 62.2767 143.333 54.2218 143.333 45.421C143.333 36.6202 145.574 28.789 150.056 21.9274C154.539 15.0657 160.739 9.69577 168.658 5.81747C176.576 1.93916 185.69 0 195.999 0C206.159 0 215.123 1.93916 222.893 5.81747C230.811 9.69577 237.012 15.0657 241.494 21.9274C246.125 28.789 248.441 36.6202 248.441 45.421C248.441 54.3709 246.125 62.5005 241.494 69.8096C237.012 76.9695 230.811 81.892 222.893 84.577L221.324 76.7458C232.38 80.6241 240.821 86.367 246.648 93.9744C252.475 101.433 255.389 110.606 255.389 121.496C255.389 130.744 252.923 139.246 247.993 147.003C243.212 154.61 236.339 160.726 227.375 165.35C218.56 169.825 208.101 172.063 195.999 172.063ZM195.999 146.332C201.826 146.332 206.906 145.287 211.239 143.199C215.572 140.962 218.933 137.904 221.324 134.025C223.714 129.998 224.91 125.448 224.91 120.377C224.91 115.156 223.714 110.681 221.324 106.952C218.933 103.074 215.572 100.09 211.239 98.0019C206.906 95.7644 201.826 94.6457 195.999 94.6457C190.172 94.6457 185.092 95.7644 180.76 98.0019C176.576 100.09 173.289 103.074 170.899 106.952C168.508 110.681 167.313 115.156 167.313 120.377C167.313 125.448 168.508 129.998 170.899 134.025C173.289 137.904 176.576 140.962 180.76 143.199C185.092 145.287 190.172 146.332 195.999 146.332ZM195.999 68.9146C200.332 68.9146 204.142 67.945 207.429 66.0059C210.716 64.0667 213.256 61.5309 215.049 58.3984C216.991 55.1168 217.962 51.3876 217.962 47.211C217.962 43.0343 216.991 39.3798 215.049 36.2473C213.256 32.9656 210.716 30.4298 207.429 28.6398C204.142 26.7007 200.332 25.7311 195.999 25.7311C191.666 25.7311 187.782 26.7007 184.345 28.6398C181.058 30.4298 178.444 32.9656 176.502 36.2473C174.709 39.3798 173.812 43.0343 173.812 47.211C173.812 51.3876 174.709 55.1168 176.502 58.3984C178.444 61.5309 181.058 64.0667 184.345 66.0059C187.782 67.945 191.666 68.9146 195.999 68.9146Z" fill="white"/>
</svg>
