<?xml version="1.0" standalone="no"?>
<!DOCTYPE svg PUBLIC "-//W3C//DTD SVG 20010904//EN"
 "http://www.w3.org/TR/2001/REC-SVG-20010904/DTD/svg10.dtd">
<svg version="1.0" xmlns="http://www.w3.org/2000/svg"
 width="700.000000pt" height="700.000000pt" viewBox="0 0 700.000000 700.000000"
 preserveAspectRatio="xMidYMid meet">
<metadata>
Created by potrace 1.14, written by Peter Selinger 2001-2017
</metadata>
<g transform="translate(0.000000,700.000000) scale(0.100000,-0.100000)"
fill="#000000" stroke="none">
<path d="M3318 6585 c-2 -1 -43 -6 -93 -9 -49 -4 -121 -11 -160 -17 -38 -6
-79 -12 -90 -14 -132 -19 -484 -113 -580 -155 -11 -5 -38 -16 -60 -25 -83 -33
-102 -41 -215 -96 -500 -243 -932 -625 -1232 -1089 -140 -218 -253 -455 -331
-695 -33 -100 -83 -295 -92 -355 -4 -24 -8 -47 -10 -50 -1 -3 -6 -32 -10 -65
-4 -33 -9 -71 -11 -85 -25 -167 -24 -590 0 -728 2 -9 7 -39 10 -66 7 -46 8
-47 23 -27 28 41 125 132 187 175 173 122 331 175 541 181 166 5 283 -18 445
-89 47 -21 90 -40 96 -42 8 -4 9 9 3 43 -10 64 -9 335 2 404 5 30 11 70 14 89
37 234 135 460 310 716 54 80 263 289 355 356 73 53 205 138 215 138 3 0 22
11 43 23 56 36 286 122 387 145 171 40 271 50 460 47 99 -1 195 -5 213 -8 18
-4 52 -9 75 -12 75 -11 260 -63 349 -99 520 -210 897 -624 1047 -1151 45 -159
56 -251 56 -463 0 -94 0 -172 1 -172 0 0 41 20 90 44 152 76 270 106 429 111
266 8 513 -88 707 -275 38 -37 71 -64 73 -61 9 15 20 210 20 361 0 145 -9 302
-20 372 -2 13 -6 41 -10 63 -5 38 -20 126 -29 170 -14 72 -49 205 -76 290
-187 585 -545 1092 -1042 1478 -80 62 -262 187 -272 187 -3 0 -22 12 -43 26
-61 41 -319 167 -433 211 -181 70 -342 120 -464 144 -28 6 -60 12 -71 15 -60
12 -73 15 -102 19 -117 17 -155 23 -223 31 -51 5 -476 14 -482 9z"/>
<path d="M3428 4735 c-2 -2 -34 -6 -72 -10 -162 -16 -341 -78 -497 -171 -103
-63 -117 -73 -217 -169 -389 -369 -487 -959 -242 -1445 120 -238 334 -443 583
-560 161 -76 324 -112 507 -112 135 -1 206 7 305 34 22 5 47 11 55 13 44 9
195 74 265 116 116 68 191 127 277 217 363 380 446 941 208 1412 -57 112 -130
212 -229 311 -230 230 -517 353 -843 363 -54 2 -99 2 -100 1z"/>
<path d="M5665 3080 c-173 -34 -336 -129 -480 -281 -69 -73 -96 -111 -227
-314 -196 -304 -481 -535 -829 -673 -68 -27 -200 -68 -252 -78 -12 -2 -35 -7
-52 -10 -88 -20 -197 -29 -340 -29 -173 0 -235 6 -399 41 -72 15 -226 64 -286
90 -265 118 -461 258 -636 455 -72 81 -88 102 -174 229 -125 185 -204 268
-350 364 -182 120 -358 159 -546 121 -79 -16 -195 -66 -250 -108 -152 -115
-243 -309 -222 -472 21 -163 183 -482 387 -760 36 -49 68 -92 71 -95 3 -3 27
-32 55 -65 89 -109 328 -340 430 -418 5 -4 28 -21 50 -38 250 -195 630 -390
950 -488 99 -30 278 -75 345 -86 19 -3 46 -7 60 -10 14 -3 48 -7 75 -11 28 -3
52 -7 55 -9 27 -16 490 -25 640 -13 839 72 1619 483 2137 1127 207 258 419
636 487 872 81 276 -122 573 -442 650 -58 14 -203 19 -257 9z"/>
</g>
</svg>
