<svg width="61" height="20" viewBox="0 0 61 20" fill="none" xmlns="http://www.w3.org/2000/svg">
<g clip-path="url(#clip0_105_5238)">
<path d="M39.7315 0.0243835C35.4003 0.0243835 31.5297 2.29057 31.5297 6.47751C31.5297 11.2791 38.3943 11.6107 38.3943 14.0229C38.3943 15.0386 37.2413 15.9478 35.2719 15.9478C32.4769 15.9478 30.388 14.6774 30.388 14.6774L29.4941 18.9025C29.4941 18.9025 31.9006 19.9756 35.0955 19.9756C39.8309 19.9756 43.5571 17.5981 43.5571 13.3397C43.5571 8.26588 36.6639 7.94406 36.6639 5.70519C36.6639 4.90944 37.6104 4.03769 39.5742 4.03769C41.7899 4.03769 43.5977 4.96165 43.5977 4.96165L44.4724 0.880967C44.4724 0.880967 42.5055 0.0243835 39.7315 0.0243835ZM0.104903 0.332389L0 0.948337C0 0.948337 1.82218 1.28494 3.46332 1.95649C5.5764 2.72647 5.72698 3.17476 6.08284 4.56704L9.96083 19.658H15.1594L23.1682 0.332389H17.9816L12.8355 13.4719L10.7356 2.33421C10.543 1.05953 9.56748 0.332389 8.37343 0.332389H0.104903ZM25.2538 0.332389L21.1851 19.6579H26.131L30.1854 0.332327H25.2538V0.332389ZM52.8387 0.332389C51.6461 0.332389 51.0142 0.976937 50.5505 2.10325L43.3044 19.6579H48.4911L49.4946 16.7321H55.8134L56.4236 19.6579H61L57.0075 0.332389H52.8387ZM53.5132 5.55356L55.0506 12.8055H50.9318L53.5132 5.55356Z" fill="#1434CB"/>
</g>
<defs>
<clipPath id="clip0_105_5238">
<rect width="61" height="20" fill="white"/>
</clipPath>
</defs>
</svg>
