<svg width="100" height="100" viewBox="0 0 100 100" fill="none" xmlns="http://www.w3.org/2000/svg">
<g clip-path="url(#clip0_1297_8800)">
<path d="M35.1836 22.3306L51.2511 6.26318L67.3185 22.3306" stroke="#E3E7EF" stroke-width="0.767291" stroke-linecap="round" stroke-linejoin="round"/>
<path d="M51.252 6.26318L51.256 96.2281" stroke="#E3E7EF" stroke-width="0.767291" stroke-linecap="round" stroke-linejoin="round"/>
<path d="M35.1836 80.1655L51.2511 96.233L67.3185 80.1655" stroke="#E3E7EF" stroke-width="0.767291" stroke-linecap="round" stroke-linejoin="round"/>
<path d="M80.1689 35.1836L96.2364 51.2511L80.1689 67.3185" stroke="#E3E7EF" stroke-width="0.767291" stroke-linecap="round" stroke-linejoin="round"/>
<path d="M22.3399 35.1836L6.27246 51.2511L22.3399 67.3185" stroke="#E3E7EF" stroke-width="0.767291" stroke-linecap="round" stroke-linejoin="round"/>
<path d="M6.27246 51.2468H96.2374" stroke="#E3E7EF" stroke-width="0.767291" stroke-linecap="round" stroke-linejoin="round"/>
<g clip-path="url(#clip1_1297_8800)">
<path d="M52.2346 18.182L74.2592 12.5926L79.8486 34.6172" stroke="#E3E7EF" stroke-width="0.767291" stroke-linecap="round" stroke-linejoin="round"/>
<path d="M74.2617 12.5925L28.2533 89.903" stroke="#E3E7EF" stroke-width="0.767291" stroke-linecap="round" stroke-linejoin="round"/>
<path d="M22.6572 67.8813L28.2467 89.906L50.2713 84.3165" stroke="#E3E7EF" stroke-width="0.767291" stroke-linecap="round" stroke-linejoin="round"/>
<path d="M84.3193 52.2354L89.9088 74.26L67.8842 79.8494" stroke="#E3E7EF" stroke-width="0.767291" stroke-linecap="round" stroke-linejoin="round"/>
<path d="M34.6264 22.6578L12.6017 28.2472L18.1912 50.2719" stroke="#E3E7EF" stroke-width="0.767291" stroke-linecap="round" stroke-linejoin="round"/>
<path d="M12.5996 28.2432L89.908 74.2551" stroke="#E3E7EF" stroke-width="0.767291" stroke-linecap="round" stroke-linejoin="round"/>
</g>
<circle cx="51" cy="51" r="21" fill="#0E5DF6"/>
<path d="M47.5 52.75L54.5 56.25M54.5 45.75L47.5 49.25M58 61.5C56.067 61.5 54.5 59.933 54.5 58C54.5 56.067 56.067 54.5 58 54.5C59.933 54.5 61.5 56.067 61.5 58C61.5 59.933 59.933 61.5 58 61.5ZM44 54.5C42.067 54.5 40.5 52.933 40.5 51C40.5 49.067 42.067 47.5 44 47.5C45.933 47.5 47.5 49.067 47.5 51C47.5 52.933 45.933 54.5 44 54.5ZM58 47.5C56.067 47.5 54.5 45.933 54.5 44C54.5 42.067 56.067 40.5 58 40.5C59.933 40.5 61.5 42.067 61.5 44C61.5 45.933 59.933 47.5 58 47.5Z" stroke="white" stroke-width="2" stroke-linecap="round" stroke-linejoin="round"/>
</g>
<defs>
<clipPath id="clip0_1297_8800">
<rect width="100" height="100" fill="white"/>
</clipPath>
<clipPath id="clip1_1297_8800">
<rect width="102.817" height="102.817" fill="white" transform="translate(33.3672 -19.2188) rotate(30.76)"/>
</clipPath>
</defs>
</svg>
