<svg width="100" height="100" viewBox="0 0 100 100" fill="none" xmlns="http://www.w3.org/2000/svg">
<g clip-path="url(#clip0_1297_8471)">
<path d="M35.1904 22.3306L51.2579 6.26318L67.3253 22.3306" stroke="#E3E7EF" stroke-width="0.767291" stroke-linecap="round" stroke-linejoin="round"/>
<path d="M51.252 6.26318L51.256 96.2281" stroke="#E3E7EF" stroke-width="0.767291" stroke-linecap="round" stroke-linejoin="round"/>
<path d="M35.1904 80.1655L51.2579 96.233L67.3253 80.1655" stroke="#E3E7EF" stroke-width="0.767291" stroke-linecap="round" stroke-linejoin="round"/>
<path d="M80.1748 35.1836L96.2423 51.2511L80.1748 67.3185" stroke="#E3E7EF" stroke-width="0.767291" stroke-linecap="round" stroke-linejoin="round"/>
<path d="M22.3341 35.1836L6.2666 51.2511L22.3341 67.3185" stroke="#E3E7EF" stroke-width="0.767291" stroke-linecap="round" stroke-linejoin="round"/>
<path d="M6.2666 51.2468H96.2315" stroke="#E3E7EF" stroke-width="0.767291" stroke-linecap="round" stroke-linejoin="round"/>
<g clip-path="url(#clip1_1297_8471)">
<path d="M52.2414 18.182L74.266 12.5926L79.8555 34.6172" stroke="#E3E7EF" stroke-width="0.767291" stroke-linecap="round" stroke-linejoin="round"/>
<path d="M74.2617 12.5925L28.2533 89.903" stroke="#E3E7EF" stroke-width="0.767291" stroke-linecap="round" stroke-linejoin="round"/>
<path d="M22.6514 67.8813L28.2408 89.906L50.2655 84.3165" stroke="#E3E7EF" stroke-width="0.767291" stroke-linecap="round" stroke-linejoin="round"/>
<path d="M84.3252 52.2354L89.9146 74.26L67.89 79.8494" stroke="#E3E7EF" stroke-width="0.767291" stroke-linecap="round" stroke-linejoin="round"/>
<path d="M34.6264 22.6578L12.6017 28.2472L18.1912 50.2719" stroke="#E3E7EF" stroke-width="0.767291" stroke-linecap="round" stroke-linejoin="round"/>
<path d="M12.5996 28.2432L89.908 74.2551" stroke="#E3E7EF" stroke-width="0.767291" stroke-linecap="round" stroke-linejoin="round"/>
</g>
<circle cx="51" cy="51" r="21" fill="#0E5DF6"/>
<path d="M51 61.5V51M51 61.5L54.5 58M51 61.5L47.5 58M51 51V40.5M51 51H40.5M51 51H61.5M51 40.5L47.5 44M51 40.5L54.5 44M40.5 51L44 54.5M40.5 51L44 47.5M61.5 51L58 47.5M61.5 51L58 54.5" stroke="white" stroke-width="2" stroke-linecap="round" stroke-linejoin="round"/>
</g>
<defs>
<clipPath id="clip0_1297_8471">
<rect width="100" height="100" fill="white"/>
</clipPath>
<clipPath id="clip1_1297_8471">
<rect width="102.817" height="102.817" fill="white" transform="translate(33.3672 -19.2188) rotate(30.76)"/>
</clipPath>
</defs>
</svg>
