<svg width="100" height="100" viewBox="0 0 100 100" fill="none" xmlns="http://www.w3.org/2000/svg">
<g clip-path="url(#clip0_1297_9841)">
<path d="M35.1836 22.3306L51.2511 6.26318L67.3185 22.3306" stroke="#E3E7EF" stroke-width="0.767291" stroke-linecap="round" stroke-linejoin="round"/>
<path d="M51.248 6.26318L51.2521 96.2281" stroke="#E3E7EF" stroke-width="0.767291" stroke-linecap="round" stroke-linejoin="round"/>
<path d="M35.1836 80.1655L51.2511 96.233L67.3185 80.1655" stroke="#E3E7EF" stroke-width="0.767291" stroke-linecap="round" stroke-linejoin="round"/>
<path d="M80.1719 35.1836L96.2393 51.2511L80.1719 67.3185" stroke="#E3E7EF" stroke-width="0.767291" stroke-linecap="round" stroke-linejoin="round"/>
<path d="M22.3409 35.1836L6.27344 51.2511L22.3409 67.3185" stroke="#E3E7EF" stroke-width="0.767291" stroke-linecap="round" stroke-linejoin="round"/>
<path d="M6.27344 51.2468H96.2383" stroke="#E3E7EF" stroke-width="0.767291" stroke-linecap="round" stroke-linejoin="round"/>
<g clip-path="url(#clip1_1297_9841)">
<path d="M52.2355 18.182L74.2602 12.5926L79.8496 34.6172" stroke="#E3E7EF" stroke-width="0.767291" stroke-linecap="round" stroke-linejoin="round"/>
<path d="M74.2578 12.5925L28.2493 89.903" stroke="#E3E7EF" stroke-width="0.767291" stroke-linecap="round" stroke-linejoin="round"/>
<path d="M22.6582 67.8813L28.2477 89.906L50.2723 84.3165" stroke="#E3E7EF" stroke-width="0.767291" stroke-linecap="round" stroke-linejoin="round"/>
<path d="M84.3184 52.2354L89.9078 74.26L67.8832 79.8494" stroke="#E3E7EF" stroke-width="0.767291" stroke-linecap="round" stroke-linejoin="round"/>
<path d="M34.6254 22.6578L12.6008 28.2472L18.1902 50.2719" stroke="#E3E7EF" stroke-width="0.767291" stroke-linecap="round" stroke-linejoin="round"/>
<path d="M12.6035 28.2432L89.9119 74.2551" stroke="#E3E7EF" stroke-width="0.767291" stroke-linecap="round" stroke-linejoin="round"/>
</g>
<circle cx="51" cy="51" r="21" fill="#0E5DF6"/>
<path d="M45.1667 48.6667H48.6667M48.6667 48.6667H52.1667M48.6667 48.6667V45.1667M48.6667 48.6667V52.1667M54.5 54.5L61.5 61.5M48.6667 56.8333C44.1563 56.8333 40.5 53.177 40.5 48.6667C40.5 44.1563 44.1563 40.5 48.6667 40.5C53.177 40.5 56.8333 44.1563 56.8333 48.6667C56.8333 53.177 53.177 56.8333 48.6667 56.8333Z" stroke="white" stroke-width="2" stroke-linecap="round" stroke-linejoin="round"/>
</g>
<defs>
<clipPath id="clip0_1297_9841">
<rect width="100" height="100" fill="white"/>
</clipPath>
<clipPath id="clip1_1297_9841">
<rect width="102.817" height="102.817" fill="white" transform="translate(33.3672 -19.2188) rotate(30.76)"/>
</clipPath>
</defs>
</svg>
